<?xml version="1.0" encoding="UTF-8" standalone="no"?>
<!-- Created with Inkscape (http://www.inkscape.org/) -->

<svg
   xmlns:dc="http://purl.org/dc/elements/1.1/"
   xmlns:cc="http://creativecommons.org/ns#"
   xmlns:rdf="http://www.w3.org/1999/02/22-rdf-syntax-ns#"
   xmlns:svg="http://www.w3.org/2000/svg"
   xmlns="http://www.w3.org/2000/svg"
   xmlns:sodipodi="http://sodipodi.sourceforge.net/DTD/sodipodi-0.dtd"
   xmlns:inkscape="http://www.inkscape.org/namespaces/inkscape"
   sodipodi:docname="cat_template.svg"
   inkscape:version="0.48.4 r9939"
   version="1.1"
   id="svg2"
   height="1052.3622047"
   width="744.09448819">
  <sodipodi:namedview
     id="base"
     pagecolor="#ffffff"
     bordercolor="#666666"
     borderopacity="1.0"
     inkscape:pageopacity="0.0"
     inkscape:pageshadow="2"
     inkscape:zoom="6.6735284"
     inkscape:cx="52.251894"
     inkscape:cy="1042.8002"
     inkscape:document-units="px"
     inkscape:current-layer="layer1"
     showgrid="false"
     inkscape:window-width="1920"
     inkscape:window-height="1030"
     inkscape:window-x="0"
     inkscape:window-y="0"
     inkscape:window-maximized="1" />
  <defs
     id="defs4" />
  <metadata
     id="metadata7">
    <rdf:RDF>
      <cc:Work
         rdf:about="">
        <dc:format>image/svg+xml</dc:format>
        <dc:type
           rdf:resource="http://purl.org/dc/dcmitype/StillImage" />
        <dc:title></dc:title>
      </cc:Work>
    </rdf:RDF>
  </metadata>
  <g
     inkscape:label="Layer 1"
     inkscape:groupmode="layer"
     id="layer1">
    <g
       id="cat_template"
       inkscape:label="#g3063"
       transform="matrix(0.12656999,0,0,0.12656999,-38.628464,-57.451098)">
      <path
         inkscape:connector-curvature="0"
         id="path2985"
         d="m 225.71429,450.93361 c -8.62315,0.73005 0.28835,-5.42593 -1.42858,-7.14286 -0.33671,-0.33671 -1.09185,0.33672 -1.42857,0 -0.33671,-0.33671 0.33672,-1.09185 0,-1.42857 -0.33671,-0.33672 -1.09185,0.33672 -1.42857,0 -0.67343,-0.67343 0.67344,-2.18371 0,-2.85714 -0.33672,-0.33672 -1.09185,0.33672 -1.42857,0 -0.33672,-0.33672 0,-0.95238 0,-1.42857 -0.47619,0 -1.09185,0.33672 -1.42857,0 -0.33672,-0.33672 0.33672,-1.09186 0,-1.42857 -0.33672,-0.33672 -1.09186,0.33671 -1.42857,0 -0.67344,-0.67344 0.67343,-2.18371 0,-2.85715 -0.33672,-0.33671 -1.09186,0.33672 -1.42857,0 -0.33672,-0.33671 0.33671,-1.09185 0,-1.42857 -0.33672,-0.33672 -0.95239,0 -1.42858,0 0,-0.47619 0.33672,-1.09185 0,-1.42857 -0.33671,-0.33672 -1.09185,0.33672 -1.42857,0 -0.33671,-0.33672 0.33672,-1.09185 0,-1.42857 -0.33671,-0.33672 -1.09185,0.33672 -1.42857,0 -0.67343,-0.67344 0.67344,-2.18371 0,-2.85714 -0.33672,-0.33672 -1.09185,0.33671 -1.42857,0 -0.33672,-0.33672 0.33672,-1.09186 0,-1.42857 -0.33672,-0.33672 -1.09185,0.33671 -1.42857,0 -0.33672,-0.33672 0.33672,-1.09186 0,-1.42858 -0.33672,-0.33671 -1.09186,0.33672 -1.42857,0 -0.33672,-0.33671 0.33671,-1.09185 0,-1.42857 -0.33672,-0.33672 -1.09186,0.33672 -1.42857,0 -0.33672,-0.33672 0.33671,-1.09185 0,-1.42857 -0.33672,-0.33672 -1.09186,0.33672 -1.42858,0 -0.67343,-0.67343 0.67344,-2.18371 0,-2.85714 -0.33671,-0.33672 -1.09185,0.33672 -1.42857,0 -0.33671,-0.33672 0,-0.95238 0,-1.42857 -0.47619,0 -1.09185,0.33671 -1.42857,0 -0.67343,-0.67344 0.67344,-2.18371 0,-2.85715 -3.80952,0 0.47619,0.47619 -1.42857,-1.42857 -0.33672,-0.33672 -1.09185,0.33672 -1.42857,0 -0.67344,-0.67343 0.67343,-2.18371 0,-2.85714 -0.33672,-0.33672 -1.09186,0.33672 -1.42857,0 -0.67344,-0.67344 0.67343,-2.18371 0,-2.85714 -0.33672,-0.33672 -1.09186,0.33671 -1.42857,0 -0.71429,-0.71429 0.71428,-3.57143 0,-4.28572 -0.33672,-0.33672 -1.09186,0.33672 -1.42858,0 -0.71428,-0.71428 0.71429,-3.57143 0,-4.28571 -0.33671,-0.33672 -1.09185,0.33672 -1.42857,0 -0.71428,-0.71429 0.71429,-3.57143 0,-4.28572 -0.33671,-0.33671 -1.09185,0.33672 -1.42857,0 -0.34376,-0.34375 0.34376,-5.37052 0,-5.71428 -0.33672,-0.33672 -1.09185,0.33672 -1.42857,0 -0.0648,-0.0647 0,-6.46929 0,-7.14286 0,-0.47619 0.33672,-1.09185 0,-1.42857 -0.33672,-0.33672 -1.09185,0.33672 -1.42857,0 -0.33672,-0.33672 0,-0.95238 0,-1.42857 0,-0.47619 0,-0.95238 0,-1.42857 0,-7.14286 0,-14.28572 0,-21.42857 0,-2.85715 0,-5.71429 0,-8.57143 0,-0.47619 -0.33672,-1.09186 0,-1.42857 0.33672,-0.33672 1.09185,0.33671 1.42857,0 0.44235,-0.44236 -0.44235,-6.70051 0,-7.14286 0.33672,-0.33672 1.09185,0.33672 1.42857,0 0.71429,-0.71429 -0.71428,-3.57143 0,-4.28572 0.33672,-0.33671 1.09186,0.33672 1.42857,0 0.71429,-0.71428 -0.71428,-3.57142 0,-4.28571 0.33672,-0.33672 1.09186,0.33672 1.42857,0 0.67344,-0.67344 -0.67343,-2.18371 0,-2.85714 0.33672,-0.33672 1.09186,0.33671 1.42858,0 0.71428,-0.71429 -0.71429,-3.57143 0,-4.28572 0.33671,-0.33672 1.09185,0.33672 1.42857,0 0.33671,-0.33672 -0.21296,-1.00265 0,-1.42857 0.30117,-0.60234 1.1274,-0.82623 1.42857,-1.42857 0.21296,-0.42592 -0.33672,-1.09185 0,-1.42857 0.33672,-0.33672 1.09185,0.33672 1.42857,0 0.67344,-0.67344 -0.67343,-2.18371 0,-2.85714 0.33672,-0.33672 1.09185,0.33671 1.42857,0 0.33672,-0.33672 -0.33672,-1.09186 0,-1.42858 0.33672,-0.33671 1.09186,0.33672 1.42857,0 0.67344,-0.67343 -0.67343,-2.1837 0,-2.85714 0.33672,-0.33672 1.09186,0.33672 1.42857,0 0.33672,-0.33672 -0.33671,-1.09185 0,-1.42857 0.33672,-0.33672 1.09186,0.33672 1.42858,0 0.33671,-0.33672 -0.33672,-1.09185 0,-1.42857 0.33671,-0.33672 1.09185,0.33672 1.42857,0 0.67343,-0.67344 -0.67344,-2.18371 0,-2.85714 0.33671,-0.33672 1.09185,0.33671 1.42857,0 0.33672,-0.33672 -0.33672,-1.09186 0,-1.42858 0.33672,-0.33671 1.09185,0.33672 1.42857,0 0.33672,-0.33671 -0.33672,-1.09185 0,-1.42857 0.33672,-0.33672 1.09185,0.33672 1.42857,0 0.33672,-0.33672 -0.33672,-1.09185 0,-1.42857 0.33672,-0.33672 0.95238,0 1.42857,0 0,-0.47619 -0.33671,-1.09185 0,-1.42857 0.33672,-0.33672 1.09186,0.33672 1.42857,0 0.33672,-0.33672 -0.33671,-1.09185 0,-1.42857 0.33672,-0.33672 1.09186,0.33672 1.42858,0 0.33671,-0.33672 -0.33672,-1.09186 0,-1.42857 0.33671,-0.33672 1.09185,0.33671 1.42857,0 0.33671,-0.33672 -0.33672,-1.09186 0,-1.42857 0.33671,-0.33672 1.09185,0.33671 1.42857,0 0.33672,-0.33672 -0.33672,-1.09186 0,-1.42858 0.33672,-0.33671 1.09185,0.33672 1.42857,0 0.33672,-0.33671 -0.33672,-1.09185 0,-1.42857 0.67344,-0.67343 2.18371,0.67344 2.85714,0 0.33672,-0.33672 -0.33671,-1.09185 0,-1.42857 0.33672,-0.33672 1.09186,0.33672 1.42857,0 0.33672,-0.33672 -0.33671,-1.09185 0,-1.42857 0.67344,-0.67344 2.18371,0.67343 2.85715,0 0.33671,-0.33672 0,-0.95238 0,-1.42857 0.47619,0 1.09185,0.33672 1.42857,0 0.33672,-0.33672 -0.33672,-1.09186 0,-1.42857 0.67343,-0.67344 2.18371,0.67343 2.85714,0 0.33672,-0.33672 -0.33672,-1.09186 0,-1.42857 0.67344,-0.67344 2.18371,0.67343 2.85714,0 0.33672,-0.33672 -0.33671,-1.09186 0,-1.42858 0.33672,-0.33671 1.00266,0.21296 1.42858,0 0.60233,-0.30117 0.82623,-1.1274 1.42857,-1.42857 0.42591,-0.21296 1.00265,0.21296 1.42857,0 0.60234,-0.30117 0.82623,-1.1274 1.42857,-1.42857 0.85184,-0.42592 2.18371,0.67344 2.85714,0 0.33672,-0.33672 -0.33671,-1.09185 0,-1.42857 0.67344,-0.67344 2.18371,0.67343 2.85715,0 0.33671,-0.33672 -0.33672,-1.09185 0,-1.42857 0.71428,-0.71429 3.57142,0.71428 4.28571,0 0.33672,-0.33672 -0.33672,-1.09186 0,-1.42857 0.67344,-0.67344 2.00531,0.42591 2.85714,0 0.60234,-0.30117 0.82624,-1.12741 1.42857,-1.42857 0.56642,-0.28321 3.99367,0.29205 4.28572,0 0.33672,-0.33672 -0.33672,-1.09186 0,-1.42858 0.34376,-0.34375 5.37053,0.34376 5.71428,0 0.33672,-0.33671 -0.33671,-1.09185 0,-1.42857 0.0648,-0.0647 6.46929,0 7.14286,0 0.47619,0 1.09186,0.33672 1.42857,0 0.33672,-0.33672 -0.33671,-1.09185 0,-1.42857 0.33672,-0.33672 0.95238,0 1.42857,0 0.99363,0 6.62624,0.25831 7.14286,0 0.60234,-0.30117 0.82623,-1.1274 1.42857,-1.42857 0.36936,-0.18468 7.55886,0 8.57143,0 0.47619,0 0.95238,0 1.42857,0 0.47619,0 1.09186,0.33672 1.42857,0 0.33672,-0.33672 -0.33671,-1.09185 0,-1.42857 0.33672,-0.33672 0.95239,0 1.42858,0 0.47619,0 0.95238,0 1.42857,0 6.19047,0 12.38095,0 18.57143,0 5.23809,0 10.47619,0 15.71428,0 0.47619,0 0.95238,0 1.42857,0 0.47619,0 1.09186,-0.33672 1.42857,0 0.33672,0.33672 -0.33671,1.09185 0,1.42857 0.33672,0.33672 0.95239,0 1.42858,0 0.67356,0 7.07811,-0.0648 7.14285,0 0.33672,0.33672 -0.33671,1.09185 0,1.42857 0.34376,0.34376 5.37053,-0.34376 5.71429,0 0.33672,0.33672 -0.33672,1.09185 0,1.42857 0.34376,0.34376 5.37053,-0.34376 5.71428,0 0.33672,0.33672 -0.33671,1.09186 0,1.42857 0.29206,0.29206 3.7193,-0.2832 4.28572,0 0.60234,0.30117 0.82623,1.12741 1.42857,1.42858 0.56642,0.2832 3.99366,-0.29206 4.28571,0 0.33672,0.33671 -0.33671,1.09185 0,1.42857 0.67344,0.67343 2.00531,-0.42592 2.85715,0 0.60234,0.30117 0.82623,1.1274 1.42857,1.42857 0.85183,0.42592 2.18371,-0.67344 2.85714,0 0.33672,0.33672 -0.33672,1.09185 0,1.42857 0.71429,0.71429 3.57143,-0.71429 4.28572,0 1.90476,1.90476 -2.38096,1.42857 1.42857,1.42857 0.47619,0 0.95238,0 1.42857,0 0.47619,0 1.09185,-0.33672 1.42857,0 0.33672,0.33672 -0.33672,1.09185 0,1.42857 0.67344,0.67344 2.18371,-0.67343 2.85714,0 0.33672,0.33672 -0.33671,1.09186 0,1.42857 0.67344,0.67344 2.18371,-0.67343 2.85715,0 0.33671,0.33672 -0.33672,1.09186 0,1.42858 0.67343,0.67343 2.1837,-0.67344 2.85714,0 0.33672,0.33671 -0.33672,1.09185 0,1.42857 0.33672,0.33671 1.00265,-0.21296 1.42857,0 0.60234,0.30117 0.82623,1.1274 1.42857,1.42857 0.42592,0.21296 1.09186,-0.33672 1.42857,0 0.33672,0.33672 -0.33671,1.09185 0,1.42857 0.33672,0.33672 1.09186,-0.33672 1.42857,0 0.33672,0.33672 -0.33671,1.09185 0,1.42857 2.95577,2.95577 -0.11554,-4.5168 2.85715,1.42857 0.21296,0.42592 -0.33672,1.09186 0,1.42857 0.33671,0.33672 1.00265,-0.21296 1.42857,0 0.60234,0.30117 0.95238,0.95238 1.42857,1.42858 0.47619,0.47619 1.1274,0.82623 1.42857,1.42857 0,3.80952 -0.47619,-0.47619 1.42857,1.42857 0.33672,0.33672 -0.33671,1.09185 0,1.42857 0.33672,0.33672 1.09186,-0.33672 1.42857,0 0.33672,0.33672 -0.33671,1.09185 0,1.42857 0.33672,0.33672 1.09186,-0.33672 1.42858,0 0.33671,0.33672 -0.33672,1.09185 0,1.42857 0.33671,0.33672 1.09185,-0.33672 1.42857,0 0.67343,0.67344 -0.67344,2.18371 0,2.85715 0.33671,0.33671 1.09185,-0.33672 1.42857,0 0.33672,0.33671 0,0.95238 0,1.42857 0.47619,0 1.09185,-0.33672 1.42857,0 0.67344,0.67343 -0.67343,2.1837 0,2.85714 0.33672,0.33672 1.09185,-0.33672 1.42857,0 0.67344,0.67343 -0.67343,2.18371 0,2.85714 0.33672,0.33672 1.09186,-0.33672 1.42857,0 0.67344,0.67344 -0.67343,2.18371 0,2.85715 0.33672,0.33671 1.09186,-0.33672 1.42857,0 0.67344,0.67343 -0.67343,2.1837 0,2.85714 0.33672,0.33672 1.09186,-0.33672 1.42858,0 0.67343,0.67343 -0.67344,2.18371 0,2.85714 0.33671,0.33672 1.09185,-0.33672 1.42857,0 0.71428,0.71429 -0.71429,3.57143 0,4.28572 0.33671,0.33671 1.09185,-0.33672 1.42857,0 0.34376,0.34375 -0.34376,5.37052 0,5.71428 0.33672,0.33672 1.09185,-0.33672 1.42857,0 0.44235,0.44235 -0.44235,6.7005 0,7.14286 0.33672,0.33672 1.09185,-0.33672 1.42857,0 0.33672,0.33672 0,0.95238 0,1.42857 0,0.47619 0,0.95238 0,1.42857 0,6.19048 0,12.38095 0,18.57143 0,3.80952 0,7.61905 0,11.42857 0,0.47619 0,0.95238 0,1.42857 0,0.47619 0.33672,1.09186 0,1.42857 -0.33672,0.33672 -1.09185,-0.33671 -1.42857,0 -0.44235,0.44236 0.44235,6.70051 0,7.14286 -0.33672,0.33672 -1.09185,-0.33672 -1.42857,0 -0.71429,0.71429 0.71428,3.57143 0,4.28572 -0.33672,0.33671 -1.09186,-0.33672 -1.42857,0 -0.71429,0.71428 0.71428,3.57142 0,4.28571 -0.33672,0.33672 -1.09186,-0.33672 -1.42857,0 -0.71429,0.71429 0.71428,3.57143 0,4.28571 -0.33672,0.33672 -1.09186,-0.33671 -1.42858,0 -0.67343,0.67344 0.67344,2.18371 0,2.85715 -0.33671,0.33671 -1.09185,-0.33672 -1.42857,0 -0.71428,0.71428 0.71429,3.57143 0,4.28571 -0.33671,0.33672 -1.09185,-0.33672 -1.42857,0 -0.67343,0.67344 0.67344,2.18371 0,2.85714 -0.33672,0.33672 -1.09185,-0.33671 -1.42857,0 -0.67343,0.67344 0.67344,2.18371 0,2.85715 -0.33672,0.33671 -1.09185,-0.33672 -1.42857,0 -0.33672,0.33671 0.21296,1.00265 0,1.42857 -0.30117,0.60234 -1.1274,0.82623 -1.42857,1.42857 -0.21296,0.42592 0.33671,1.09185 0,1.42857 -0.33672,0.33672 -1.09186,-0.33672 -1.42857,0 -0.67344,0.67344 0.67343,2.18371 0,2.85714 -0.33672,0.33672 -1.09186,-0.33671 -1.42858,0 -0.67343,0.67344 0.67344,2.18371 0,2.85715 -0.33671,0.33671 -1.09185,-0.33672 -1.42857,0 -0.33671,0.33671 0.33672,1.09185 0,1.42857 -0.33671,0.33672 -1.09185,-0.33672 -1.42857,0 -0.67343,0.67343 0.67344,2.18371 0,2.85714 -0.33672,0.33672 -1.09185,-0.33672 -1.42857,0 -0.33672,0.33672 0.33672,1.09185 0,1.42857 -0.33672,0.33672 -1.09185,-0.33672 -1.42857,0 -0.67344,0.67344 0.67343,2.18371 0,2.85715 -0.33672,0.33671 -1.09186,-0.33672 -1.42857,0 -0.33672,0.33671 0.33671,1.09185 0,1.42857 -0.33672,0.33671 -1.09186,-0.33672 -1.42857,0 -0.67344,0.67343 0.67343,2.1837 0,2.85714 -0.33672,0.33672 -1.09186,-0.33672 -1.42858,0 -0.33671,0.33672 0.33672,1.09185 0,1.42857 -0.33671,0.33672 -1.09185,-0.33672 -1.42857,0 -0.33671,0.33672 0.33672,1.09185 0,1.42857 -0.33671,0.33672 -1.09185,-0.33672 -1.42857,0 -0.33672,0.33672 0.33672,1.09186 0,1.42857 -0.33672,0.33672 -1.09185,-0.33671 -1.42857,0 -0.67343,0.67344 0.67344,2.18371 0,2.85715 -0.33672,0.33671 -1.09185,-0.33672 -1.42857,0 -0.33672,0.33671 0.33672,1.09185 0,1.42857 -0.33672,0.33672 -0.95238,0 -1.42857,0 0,0.47619 0.33671,1.09185 0,1.42857 -0.33672,0.33672 -1.09186,-0.33672 -1.42857,0 -0.67344,0.67343 0.67343,2.18371 0,2.85714 -0.33672,0.33672 -1.09186,-0.33672 -1.42858,0 -0.33671,0.33672 0.33672,1.09186 0,1.42857 -0.33671,0.33672 -1.09185,-0.33671 -1.42857,0 -0.33671,0.33672 0.33672,1.09186 0,1.42858 -0.33671,0.33671 -1.09185,-0.33672 -1.42857,0 -0.33672,0.33671 0.33672,1.09185 0,1.42857 -0.33672,0.33671 -1.09185,-0.33672 -1.42857,0 -0.33672,0.33671 0.33672,1.09185 0,1.42857 -0.67343,0.67343 -2.18371,-0.67344 -2.85714,0 -0.33672,0.33672 0.33671,1.09185 0,1.42857 -0.33672,0.33672 -1.09186,-0.33672 -1.42857,0 -0.33672,0.33672 0.33671,1.09185 0,1.42857 -0.33672,0.33672 -1.09186,-0.33672 -1.42858,0 -0.33671,0.33672 0.33672,1.09185 0,1.42857 -0.67343,0.67344 -2.1837,-0.67343 -2.85714,0 -0.33672,0.33672 0.33672,1.09186 0,1.42857 -0.33672,0.33672 -1.09185,-0.33671 -1.42857,0 -0.33672,0.33672 0.33672,1.09186 0,1.42858 -0.67343,0.67343 -2.18371,-0.67344 -2.85714,0 -0.33672,0.33671 0.33671,1.09185 0,1.42857 -0.67344,0.67343 -2.18371,-0.67344 -2.85715,0 -0.33671,0.33671 0.33672,1.09185 0,1.42857 -0.71428,0.71428 -3.57142,-0.71429 -4.28571,0 -0.33672,0.33672 0.33672,1.09185 0,1.42857 -0.33672,0.33672 -0.95238,0 -1.42857,0 -0.47619,0 -1.42857,0.47619 -1.42857,0 0,-0.47619 0.95238,0 1.42857,0 3.95599,0 -1.09885,1.42857 2.85714,1.42857 0.47619,0 0.95238,0 1.42857,0 0.47619,0 1.09186,-0.33672 1.42857,0 0.33672,0.33672 -0.33671,1.09185 0,1.42857 0.67344,0.67344 2.18371,-0.67343 2.85715,0 0.33671,0.33672 -0.33672,1.09186 0,1.42857 0.67343,0.67344 2.0053,-0.42591 2.85714,0 0.60234,0.30117 0.82623,1.12741 1.42857,1.42858 0.85184,0.42591 2.18371,-0.67344 2.85714,0 0.33672,0.33671 -0.33671,1.09185 0,1.42857 0.71429,0.71428 3.57143,-0.71429 4.28572,0 0.33672,0.33671 -0.33672,1.09185 0,1.42857 0.67343,0.67343 2.18371,-0.67344 2.85714,0 0.33672,0.33672 -0.33672,1.09185 0,1.42857 0.67344,0.67343 2.00531,-0.42592 2.85714,0 0.60234,0.30117 0.82624,1.1274 1.42858,1.42857 0.42591,0.21296 1.09185,-0.33672 1.42857,0 0.33671,0.33672 -0.33672,1.09185 0,1.42857 0.67343,0.67344 2.18371,-0.67343 2.85714,0 0.33672,0.33672 -0.33672,1.09186 0,1.42857 0.67344,0.67344 2.18371,-0.67343 2.85714,0 0.33672,0.33672 -0.33671,1.09186 0,1.42858 0.67344,0.67343 2.18371,-0.67344 2.85715,0 0.33671,0.33671 -0.33672,1.09185 0,1.42857 0.33671,0.33671 1.09185,-0.33672 1.42857,0 0.33671,0.33671 -0.33672,1.09185 0,1.42857 0.67343,0.67343 2.18371,-0.67344 2.85714,0 0.33672,0.33672 -0.33672,1.09185 0,1.42857 0.67344,0.67343 2.18371,-0.67344 2.85714,0 0.33672,0.33672 -0.33671,1.09185 0,1.42857 0.33672,0.33672 1.09186,-0.33672 1.42857,0 0.33672,0.33672 -0.33671,1.09185 0,1.42857 0.67344,0.67344 2.18371,-0.67343 2.85715,0 0.33671,0.33672 -0.33672,1.09186 0,1.42857 0.33671,0.33672 1.09185,-0.33671 1.42857,0 0.33672,0.33672 -0.33672,1.09186 0,1.42858 0.33672,0.33671 1.09185,-0.33672 1.42857,0 0.33672,0.33671 -0.33672,1.09185 0,1.42857 0.33672,0.33671 1.09185,-0.33672 1.42857,0 0.33672,0.33671 -0.33672,1.09185 0,1.42857 0.33672,0.33672 1.09186,-0.33672 1.42857,0 0.33672,0.33672 -0.33671,1.09185 0,1.42857 0.33672,0.33672 1.09186,-0.33672 1.42857,0 0.33672,0.33672 -0.33671,1.09185 0,1.42857 2.95577,2.95577 -0.11554,-4.5168 2.85715,1.42857 0,3.80953 -0.47619,-0.47619 1.42857,1.42857 0.33672,0.33672 -0.33672,1.09186 0,1.42858 0.33672,0.33671 1.09185,-0.33672 1.42857,0 0.33672,0.33671 -0.33672,1.09185 0,1.42857 0.33672,0.33671 1.09185,-0.33672 1.42857,0 0.67344,0.67343 -0.67343,2.1837 0,2.85714 0.33672,0.33672 1.09186,-0.33672 1.42857,0 0.33672,0.33672 -0.33671,1.09185 0,1.42857 0.33672,0.33672 1.09186,-0.33672 1.42857,0 0.33672,0.33672 -0.33671,1.09185 0,1.42857 0.33672,0.33672 0.95239,0 1.42858,0 0,0.47619 -0.33672,1.09186 0,1.42857 0.33671,0.33672 1.09185,-0.33671 1.42857,0 0.67343,0.67344 -0.67344,2.18371 0,2.85715 0.33671,0.33671 1.09185,-0.33672 1.42857,0 0.33672,0.33671 -0.33672,1.09185 0,1.42857 0.33672,0.33672 1.09185,-0.33672 1.42857,0 0.67344,0.67343 -0.42592,2.00531 0,2.85714 0.30117,0.60234 1.1274,0.82623 1.42857,1.42857 0.21296,0.42592 -0.21296,1.00266 0,1.42857 0.30117,0.60234 1.1274,0.82624 1.42857,1.42858 0.42592,0.85183 -0.67343,2.1837 0,2.85714 0.33672,0.33672 1.09186,-0.33672 1.42857,0 0.71429,0.71428 -0.71428,3.57143 0,4.28571 0.33672,0.33672 1.09186,-0.33672 1.42858,0 0.71428,0.71429 -0.71429,3.57143 0,4.28572 0.33671,0.33671 1.09185,-0.33672 1.42857,0 0.29205,0.29205 -0.28321,3.71929 0,4.28571 0.30117,0.60234 1.1274,0.82623 1.42857,1.42857 0.28321,0.56642 -0.29205,3.99366 0,4.28572 0.33672,0.33671 1.09185,-0.33672 1.42857,0 0.71429,0.71428 -0.71429,3.57143 0,4.28571 0.33672,0.33672 1.09185,-0.33672 1.42857,0 0.34376,0.34376 -0.34376,5.37053 0,5.71429 0.33672,0.33671 1.09186,-0.33672 1.42857,0 0.71429,0.71428 -0.71428,3.57143 0,4.28571 0.33672,0.33672 1.09186,-0.33672 1.42857,0 0.34376,0.34376 -0.34375,5.37053 0,5.71429 0.33672,0.33671 1.09186,-0.33672 1.42858,0 0.34375,0.34376 -0.34376,5.37052 0,5.71428 0.33671,0.33672 1.09185,-0.33672 1.42857,0 0.34376,0.34376 -0.34376,5.37053 0,5.71429 0.33671,0.33672 1.09185,-0.33672 1.42857,0 0.71428,0.71428 -0.71429,3.57143 0,4.28571 0.33672,0.33672 1.09185,-0.33672 1.42857,0 0.34376,0.34376 -0.34376,5.37053 0,5.71429 0.33672,0.33672 1.09185,-0.33672 1.42857,0 0.71429,0.71428 -0.71428,3.57143 0,4.28571 0.33672,0.33672 1.09186,-0.33672 1.42857,0 0.34376,0.34376 -0.34376,5.37053 0,5.71429 0.33672,0.33672 1.09186,-0.33672 1.42857,0 0.67344,0.67343 -0.42591,2.00531 0,2.85714 0.30117,0.60234 1.12741,0.82623 1.42858,1.42857 0.42591,0.85184 -0.67344,2.18371 0,2.85715 0.33671,0.33671 1.09185,-0.33672 1.42857,0 0.67343,0.67343 -0.67344,2.1837 0,2.85714 0.33671,0.33672 1.09185,-0.33672 1.42857,0 0.67343,0.67343 -0.67344,2.18371 0,2.85714 0.33672,0.33672 1.09185,-0.33672 1.42857,0 0.71429,0.71429 -0.71429,3.57143 0,4.28572 0.33672,0.33671 1.09185,-0.33672 1.42857,0 0.67344,0.67343 -0.67343,2.1837 0,2.85714 0.33672,0.33672 1.09186,-0.33672 1.42857,0 0.67344,0.67343 -0.67343,2.18371 0,2.85714 0.33672,0.33672 1.09186,-0.33672 1.42857,0 0.67344,0.67344 -0.67343,2.18371 0,2.85714 0.33672,0.33672 1.09186,-0.33671 1.42858,0 0.67343,0.67344 -0.67344,2.18371 0,2.85715 0.33671,0.33671 1.09185,-0.33672 1.42857,0 0.67343,0.67343 -0.42592,2.0053 0,2.85714 0.30117,0.60234 1.1274,0.82623 1.42857,1.42857 0.42592,0.85184 -0.67344,2.18371 0,2.85714 0.33672,0.33672 1.09185,-0.33671 1.42857,0 0.33672,0.33672 0,0.95238 0,1.42858 0,0.47619 0.33672,1.09185 0,1.42857 -0.67343,0.67343 -2.18371,-0.67344 -2.85714,0 -0.33672,0.33671 0.33671,1.09185 0,1.42857 -0.44236,0.44235 -6.70051,-0.44235 -7.14286,0 -0.33672,0.33672 0.33672,1.09185 0,1.42857 -0.0459,0.0459 -3.93925,0 -4.28571,0 -0.52463,0 -5.6568,-0.0575 -5.71429,0 -0.33672,0.33672 0.33672,1.09185 0,1.42857 -0.33672,0.33672 -0.95238,0 -1.42857,0 -0.47619,0 -0.95238,0 -1.42857,0 -3.33334,0 -6.66667,0 -10,0 -0.47619,0 -1.09186,0.33672 -1.42857,0 -0.33672,-0.33672 0.33671,-1.09185 0,-1.42857 -0.34376,-0.34376 -5.37053,0.34376 -5.71429,0 -0.33672,-0.33672 0.33672,-1.09185 0,-1.42857 -0.71429,-0.71429 -3.57143,0.71428 -4.28571,0 -0.33672,-0.33672 0.33671,-1.09186 0,-1.42857 -0.67344,-0.67344 -2.18371,0.67343 -2.85715,0 -0.33671,-0.33672 0.33672,-1.09186 0,-1.42857 -0.67343,-0.67344 -2.1837,0.67343 -2.85714,0 -0.33672,-0.33672 0.33672,-1.09186 0,-1.42858 -0.33672,-0.33671 -1.09185,0.33672 -1.42857,0 -0.33672,-0.33671 0.33672,-1.09185 0,-1.42857 -0.33672,-0.33672 -1.09186,0.33672 -1.42857,0 -0.33672,-0.33672 0.33671,-1.09185 0,-1.42857 -0.33672,-0.33672 -1.09186,0.33672 -1.42857,0 -0.33672,-0.33672 0.33671,-1.09185 0,-1.42857 -0.33672,-0.33672 -1.09186,0.33672 -1.42858,0 -0.33671,-0.33672 0.33672,-1.09185 0,-1.42857 -0.33671,-0.33672 -1.09185,0.33672 -1.42857,0 -0.33671,-0.33672 0.33672,-1.09186 0,-1.42857 -0.67343,-0.67344 -2.1837,0.67343 -2.85714,0 -0.33672,-0.33672 0.33672,-1.09186 0,-1.42857 -0.33672,-0.33672 -1.09185,0.33671 -1.42857,0 -0.33672,-0.33672 0.33672,-1.09186 0,-1.42858 -0.33672,-0.33671 -1.09186,0.33672 -1.42857,0 -0.33672,-0.33671 0.33671,-1.09185 0,-1.42857 -0.33672,-0.33672 -1.09186,0.33672 -1.42857,0 -0.33672,-0.33672 0.33671,-1.09185 0,-1.42857 -0.33672,-0.33672 -1.00266,0.21296 -1.42858,0 -0.60233,-0.30117 -0.82623,-1.1274 -1.42857,-1.42857 -0.42591,-0.21296 -1.09185,0.33672 -1.42857,0 -0.33672,-0.33672 0.33672,-1.09185 0,-1.42857 -0.33672,-0.33672 -1.09185,0.33672 -1.42857,0 -0.71429,-0.71429 0.71429,-3.57143 0,-4.28572 -0.33672,-0.33671 -1.09185,0.33672 -1.42857,0 -0.67344,-0.67343 0.67343,-2.1837 0,-2.85714 -0.33672,-0.33672 -1.09186,0.33672 -1.42857,0 -0.71429,-0.71428 0.71428,-3.57143 0,-4.28571 -0.33672,-0.33672 -1.09186,0.33671 -1.42857,0 -0.67344,-0.67344 0.67343,-2.18371 0,-2.85715 -0.33672,-0.33671 -1.09186,0.33672 -1.42858,0 -0.71428,-0.71428 0.71429,-3.57142 0,-4.28571 -0.33671,-0.33672 -1.09185,0.33672 -1.42857,0 -0.71428,-0.71429 0.71429,-3.57143 0,-4.28571 -0.33671,-0.33672 -1.09185,0.33671 -1.42857,0 -0.67343,-0.67344 0.67344,-2.18371 0,-2.85715 -0.33672,-0.33672 -1.09185,0.33672 -1.42857,0 -0.67343,-0.67343 0.67344,-2.18371 0,-2.85714 -0.33672,-0.33672 -1.09185,0.33672 -1.42857,0 -0.33672,-0.33672 0.33672,-1.09185 0,-1.42857 -0.33672,-0.33672 -0.95238,0 -1.42857,0 -3.33334,0 -6.66667,0 -10,0 -2.38096,0 -4.76191,0 -7.14286,0 -0.47619,0 -1.09185,-0.33672 -1.42857,0 -0.33672,0.33672 0.33672,1.09185 0,1.42857 -0.33672,0.33672 -1.09186,-0.33672 -1.42857,0 -0.33672,0.33672 0.33671,1.09185 0,1.42857 -0.33672,0.33672 -1.09186,-0.33672 -1.42857,0 -0.33672,0.33672 0.33671,1.09185 0,1.42857 -0.33672,0.33672 -1.09186,-0.33672 -1.42858,0 -0.67343,0.67344 0.67344,2.18371 0,2.85715 -0.33671,0.33671 -1.09185,-0.33672 -1.42857,0 -0.71428,0.71428 0.71429,3.57142 0,4.28571 -0.33671,0.33672 -1.09185,-0.33672 -1.42857,0 -0.0647,0.0647 0,6.46929 0,7.14286 0,0.67357 -0.0647,7.07811 0,7.14285 0.33672,0.33672 1.09186,-0.33671 1.42857,0 0.33672,0.33672 0,0.95238 0,1.42858 0,2.38095 0,4.7619 0,7.14285 0,0.47619 0,0.95238 0,1.42857 0,0.47619 0.33672,1.09186 0,1.42858 -0.0459,0.0459 -3.93924,0 -4.28571,0 -6.19048,0 -12.38095,0 -18.57143,0 -0.47619,0 -0.95238,0 -1.42857,0 -0.47619,0 -1.09186,0.33671 -1.42857,0 -0.33672,-0.33672 0.33671,-1.09186 0,-1.42858 -0.33672,-0.33671 -0.95238,0 -1.42857,0 -2.85715,0 -5.71429,0 -8.57143,0 -6.66667,0 -13.33334,0 -20,0 -0.47619,0 -0.95238,0 -1.42857,0 -0.47619,0 -1.09186,0.33672 -1.42858,0 -0.33671,-0.33671 0.33672,-1.09185 0,-1.42857 -0.44235,-0.44235 -6.7005,0.44236 -7.14285,0 -0.33672,-0.33672 0.33671,-1.09185 0,-1.42857 -0.44236,-0.44235 -6.70051,0.44235 -7.14286,0 -0.33672,-0.33672 0.33672,-1.09185 0,-1.42857 -0.33672,-0.33672 -1.09185,0.33672 -1.42857,0 -0.67344,-0.67344 0.67343,-2.18371 0,-2.85714 -0.33672,-0.33672 -1.09186,0.33671 -1.42857,0 -0.33672,-0.33672 0,-0.95238 0,-1.42857 0,-2.38096 0,-4.76191 0,-7.14286 0,-0.52463 0.0575,-5.6568 0,-5.71429 -0.33672,-0.33672 -1.09186,0.33672 -1.42857,0 -0.33672,-0.33672 0,-0.95238 0,-1.42857 0,-3.33333 0,-6.66667 0,-10 0,-2.85714 0,-5.71428 0,-8.57143 0,-0.47619 0.33671,-1.09185 0,-1.42857 -0.33672,-0.33672 -1.09186,0.33672 -1.42858,0 -0.33671,-0.33672 0.33672,-1.09185 0,-1.42857 -0.67343,-0.67344 -2.1837,0.67343 -2.85714,0 -0.33672,-0.33672 0.33672,-1.09185 0,-1.42857 -0.33672,-0.33672 -0.95238,0 -1.42857,0 -2.38095,0 -4.7619,0 -7.14286,0 -0.74703,0 -5.33865,0.18781 -5.71428,0 -0.60234,-0.30117 -0.82624,-1.1274 -1.42857,-1.42857 -0.43477,-0.21738 -3.64235,0 -4.28572,0 -3.33333,0 -6.66667,0 -10,0 -3.33333,0 -6.66667,0 -10,0 -0.64337,0 -3.85095,-0.21738 -4.28571,0 -0.60234,0.30117 -0.82624,1.1274 -1.42857,1.42857 -0.42592,0.21296 -1.09186,-0.33672 -1.42858,0 -0.33671,0.33672 0.33672,1.09185 0,1.42857 -0.33671,0.33672 -1.09185,-0.33672 -1.42857,0 -0.67343,0.67343 0.67344,2.18371 0,2.85714 -0.33671,0.33672 -1.09185,-0.33672 -1.42857,0 -0.67343,0.67344 0.67344,2.18371 0,2.85715 -0.33672,0.33671 -1.09185,-0.33672 -1.42857,0 -0.67343,0.67343 0.67344,2.1837 0,2.85714 -0.33672,0.33672 -1.09185,-0.33672 -1.42857,0 -0.34376,0.34376 0.34376,5.37053 0,5.71428 -0.33672,0.33672 -1.09186,-0.33671 -1.42857,0 -0.33672,0.33672 0,0.95238 0,1.42858 0,2.38095 0,4.7619 0,7.14285 0,0.47619 0.33671,1.09186 0,1.42857 -0.33672,0.33672 -1.09186,-0.33671 -1.42857,0 -0.046,0.0459 0,3.93925 0,4.28572 0,0.34646 0.0459,4.23977 0,4.28571 -0.33672,0.33672 -1.09186,-0.33672 -1.42858,0 -0.33671,0.33672 0.33672,1.09186 0,1.42857 -0.67343,0.67344 -2.1837,-0.67343 -2.85714,0 -0.33672,0.33672 0.33672,1.09186 0,1.42858 -0.67343,0.67343 -2.18371,-0.67344 -2.85714,0 -0.33672,0.33671 0.33672,1.09185 0,1.42857 -0.33672,0.33671 -0.95238,0 -1.42857,0 -0.47619,0 -0.95238,0 -1.42857,0 -5.2381,0 -10.47619,0 -15.71429,0 -0.34647,0 -4.23977,0.0459 -4.28571,0 -0.33672,-0.33672 0,-0.95238 0,-1.42857 0,-2.85715 0,-5.71429 0,-8.57143 0,-3.80953 0,-7.61905 0,-11.42857 0,-0.4762 0,-0.95239 0,-1.42858 0,-0.47619 -0.33672,-1.09185 0,-1.42857 0.33671,-0.33672 1.09185,0.33672 1.42857,0 0.33671,-0.33672 0,-0.95238 0,-1.42857 0,-0.47619 0,-0.95238 0,-1.42857 0,-3.80952 -0.47619,0.47619 1.42857,-1.42857 0.33672,-0.33672 0,-0.95238 0,-1.42857 0,-0.47619 0,-0.95238 0,-1.42857 0,-2.38096 0,-4.76191 0,-7.14286 0,-0.47619 0.33672,-1.09186 0,-1.42857 -0.33672,-0.33672 -1.09186,0.33671 -1.42857,0 -0.33672,-0.33672 0.33671,-1.09186 0,-1.42857 -0.33672,-0.33672 -1.09186,0.33671 -1.42857,0 -0.33672,-0.33672 0.33671,-1.09186 0,-1.42858 -0.33672,-0.33671 -1.09186,0.33672 -1.42858,0 -0.33671,-0.33671 0.33672,-1.09185 0,-1.42857 -0.33671,-0.33672 -1.09185,0.33672 -1.42857,0 -0.33671,-0.33672 0.33672,-1.09185 0,-1.42857 -0.71428,-0.71428 -3.57143,0.71429 -4.28571,0 -0.33672,-0.33672 0.33672,-1.09185 0,-1.42857 -0.0575,-0.0575 -5.18966,0 -5.71429,0 -0.47619,0 -1.09185,-0.33672 -1.42857,0 -0.33672,0.33672 0.33672,1.09185 0,1.42857 -0.67343,0.67344 -2.18371,-0.67343 -2.85714,0 -0.33672,0.33672 0.33672,1.09185 0,1.42857 -0.33672,0.33672 -1.09186,-0.33672 -1.42857,0 -0.33672,0.33672 0.33671,1.09186 0,1.42857 -0.33672,0.33672 -1.09186,-0.33671 -1.42857,0 -0.33672,0.33672 0.33671,1.09186 0,1.42858 -0.33672,0.33671 -1.09186,-0.33672 -1.42858,0 -0.33671,0.33671 0.33672,1.09185 0,1.42857 -0.33671,0.33671 -0.95238,0 -1.42857,0 0,0.47619 0.33672,1.09185 0,1.42857 -0.33671,0.33672 -1.09185,-0.33672 -1.42857,0 -0.33672,0.33672 0.33672,1.09185 0,1.42857 -0.33672,0.33672 -1.09185,-0.33672 -1.42857,0 -0.33672,0.33672 0.33672,1.09185 0,1.42857 -0.33672,0.33672 -1.09185,-0.33672 -1.42857,0 -0.33672,0.33672 0.33672,1.09185 0,1.42857 -0.33672,0.33672 -1.09186,-0.33672 -1.42857,0 -0.33672,0.33672 0.21296,1.00266 0,1.42857 -0.30117,0.60234 -1.1274,0.82624 -1.42857,1.42858 -0.21296,0.42591 0.33671,1.09185 0,1.42857 -0.33672,0.33671 -1.09186,-0.33672 -1.42858,0 -0.33671,0.33671 0.33672,1.09185 0,1.42857 -0.33671,0.33672 -1.09185,-0.33672 -1.42857,0 -0.67343,0.67343 0.67344,2.18371 0,2.85714 -0.33671,0.33672 -1.09185,-0.33672 -1.42857,0 -0.33672,0.33672 0.33672,1.09185 0,1.42857 -0.33672,0.33672 -1.09185,-0.33672 -1.42857,0 -0.67343,0.67344 0.67344,2.18371 0,2.85715 -0.33672,0.33671 -1.09185,-0.33672 -1.42857,0 -0.67344,0.67343 0.67343,2.1837 0,2.85714 -0.33672,0.33672 -1.09186,-0.33672 -1.42857,0 -0.33672,0.33672 0.33671,1.09185 0,1.42857 -0.33672,0.33672 -1.09186,-0.33672 -1.42857,0 -0.67344,0.67343 0.67343,2.18371 0,2.85714 -0.33672,0.33672 -1.09186,-0.33672 -1.42858,0 -0.33671,0.33672 0.33672,1.09186 0,1.42857 -3.80952,0 0.47619,-0.47619 -1.42857,1.42858 -0.33671,0.33671 -1.00265,-0.21296 -1.42857,0 -0.60234,0.30116 -0.82623,1.1274 -1.42857,1.42857 -0.42592,0.21296 -1.09185,-0.33672 -1.42857,0 -0.33672,0.33671 0.33672,1.09185 0,1.42857 -0.67344,0.67343 -2.18371,-0.67344 -2.85714,0 -0.33672,0.33672 0.33671,1.09185 0,1.42857 -0.71429,0.71429 -3.57143,-0.71429 -4.28572,0 -0.33672,0.33672 0.33672,1.09185 0,1.42857 -0.67343,0.67344 -2.18371,-0.67343 -2.85714,0 -0.33672,0.33672 0.33672,1.09185 0,1.42857 -0.0459,0.046 -3.93925,0 -4.28572,0 -0.47619,0 -1.09185,0.33672 -1.42857,0 -0.33671,-0.33672 0.21296,-1.00265 0,-1.42857 -0.30117,-0.60234 -1.1274,-0.82623 -1.42857,-1.42857 -0.42592,-0.85184 0.67344,-2.18371 0,-2.85714 -0.33672,-0.33672 -1.09185,0.33671 -1.42857,0 -0.67343,-0.67344 0.67344,-2.18371 0,-2.85715 -0.33672,-0.33671 -1.09185,0.33672 -1.42857,0 -0.67344,-0.67343 0.67343,-2.1837 0,-2.85714 -0.33672,-0.33672 -1.09186,0.33672 -1.42857,0 -0.67344,-0.67343 0.67343,-2.18371 0,-2.85714 -0.33672,-0.33672 -1.09186,0.33672 -1.42857,0 -0.39089,-0.39089 0.38749,-4.93931 0,-5.71429 -0.30117,-0.60234 -1.12741,-0.82623 -1.42858,-1.42857 -0.21738,-0.43476 0,-3.64235 0,-4.28571 0,-3.80953 0,-7.61905 0,-11.42857 0,-9.04762 0,-18.09524 0,-27.14286 0,-0.67357 -0.0647,-7.07811 0,-7.14286 0.33672,-0.33672 1.09186,0.33672 1.42858,0 0.71428,-0.71428 -0.71429,-3.57143 0,-4.28571 1.90476,-1.90477 1.42857,2.38095 1.42857,-1.42857 0,-3.80953 -0.47619,0.47619 1.42857,-1.42858 0.67343,-0.67343 -0.67344,-2.1837 0,-2.85714 0.33672,-0.33672 1.09185,0.33672 1.42857,0 0.67344,-0.67343 -0.67343,-2.18371 0,-2.85714 0.33672,-0.33672 1.09185,0.33672 1.42857,0 0.67344,-0.67344 -0.67343,-2.18371 0,-2.85714 0.33672,-0.33672 1.09186,0.33671 1.42857,0 0.33672,-0.33672 -0.33671,-1.09186 0,-1.42858 0.33672,-0.33671 1.09186,0.33672 1.42857,0 0.67344,-0.67343 -0.67343,-2.1837 0,-2.85714 0.33672,-0.33672 1.09186,0.33672 1.42858,0 0.33671,-0.33672 -0.33672,-1.09185 0,-1.42857 0.33671,-0.33672 1.09185,0.33672 1.42857,0 0.33671,-0.33672 -0.33672,-1.09185 0,-1.42857 0.33671,-0.33672 0.95238,0 1.42857,0 0,-0.47619 -0.33672,-1.09186 0,-1.42857 0.33672,-0.33672 1.09185,0.33671 1.42857,0 0.33672,-0.33672 -0.33672,-1.09186 0,-1.42857 0.33672,-0.33672 1.09185,0.33671 1.42857,0 0.33672,-0.33672 -0.33672,-1.09186 0,-1.42858 0.33672,-0.33671 1.09186,0.33672 1.42857,0 0.33672,-0.33671 -0.33671,-1.09185 0,-1.42857 0.67344,-0.67343 2.18371,0.67344 2.85715,0 0.33671,-0.33672 0,-0.95238 0,-1.42857 0.47619,0 1.09185,0.33672 1.42857,0 0.33671,-0.33672 -0.33672,-1.09185 0,-1.42857 0.33671,-0.33672 1.09185,0.33672 1.42857,0 0.33672,-0.33672 -0.33672,-1.09185 0,-1.42857 0.67343,-0.67344 2.18371,0.67343 2.85714,0 0.33672,-0.33672 -0.33672,-1.09186 0,-1.42857 3.80953,0 -0.47619,0.47619 1.42857,-1.42857 0.67344,-0.67344 2.18371,0.67343 2.85715,0 0.33671,-0.33672 -0.33672,-1.09186 0,-1.42858 0.67343,-0.67343 2.1837,0.67344 2.85714,0 0.33672,-0.33671 -0.33672,-1.09185 0,-1.42857 0.33672,-0.33672 1.09185,0.33672 1.42857,0 0,-3.80952 -0.47619,0.47619 1.42857,-1.42857 0.33672,-0.33672 -0.33672,-1.09185 0,-1.42857 0.67344,-0.67344 2.18371,0.67343 2.85714,0 0.33672,-0.33672 -0.33671,-1.09185 0,-1.42857 0.33672,-0.33672 1.09186,0.33672 1.42858,0 0.33671,-0.33672 -0.33672,-1.09186 0,-1.42857 0.67343,-0.67344 2.1837,0.67343 2.85714,0 0.33672,-0.33672 -0.33672,-1.09186 0,-1.42857 0.33672,-0.33672 1.09185,0.33671 1.42857,0 0.33672,-0.33672 -0.33672,-1.09186 0,-1.42858 0.33672,-0.33671 1.09185,0.33672 1.42857,0 0.33672,-0.33671 -0.33672,-1.09185 0,-1.42857 0.33672,-0.33672 1.00266,0.21296 1.42857,0 0.60234,-0.30117 0.82624,-1.1274 1.42857,-1.42857 0.42592,-0.21296 1.09186,0.33672 1.42858,0 0.33671,-0.33672 -0.33672,-1.09185 0,-1.42857 0.33671,-0.33672 1.09185,0.33672 1.42857,0 0.33671,-0.33672 -0.33672,-1.09185 0,-1.42857 0.33671,-0.33672 1.09185,0.33672 1.42857,0 0.33672,-0.33672 -0.33672,-1.09186 0,-1.42857 0.33672,-0.33672 1.09185,0.33671 1.42857,0 0.33672,-0.33672 -0.33672,-1.09186 0,-1.42857 0.33672,-0.33672 1.09185,0.33671 1.42857,0 0.33672,-0.33672 -0.33672,-1.09186 0,-1.42858 0.33672,-0.33671 1.09186,0.33672 1.42857,0 0.33672,-0.33671 -0.33671,-1.09185 0,-1.42857 0.33672,-0.33672 1.09186,0.33672 1.42857,0 0.33672,-0.33672 -0.33671,-1.09185 0,-1.42857 0.33672,-0.33672 1.09186,0.33672 1.42858,0 0.33671,-0.33672 -0.33672,-1.09185 0,-1.42857 3.80952,0 -0.47619,0.47619 1.42857,-1.42857 0.33671,-0.33672 1.09185,0.33672 1.42857,0 0.33672,-0.33672 -0.33672,-1.09186 0,-1.42857 0.33672,-0.33672 1.09185,0.33671 1.42857,0 0.33672,-0.33672 -0.33672,-1.09186 0,-1.42857 0.33672,-0.33672 1.09185,0.33671 1.42857,0 0.33672,-0.33672 -0.33672,-1.09186 0,-1.42858 0.33672,-0.33671 1.09186,0.33672 1.42857,0 0.33672,-0.33671 -0.33671,-1.09185 0,-1.42857 0.33672,-0.33672 1.09186,0.33672 1.42857,0 0.33672,-0.33672 -0.33671,-1.09185 0,-1.42857 0.33672,-0.33672 1.09186,0.33672 1.42858,0 0.33671,-0.33672 -0.33672,-1.09185 0,-1.42857 0.33671,-0.33672 1.09185,0.33672 1.42857,0 0.33671,-0.33672 -0.33672,-1.09185 0,-1.42857 0.33671,-0.33672 1.09185,0.33672 1.42857,0 0.33672,-0.33672 -0.33672,-1.09186 0,-1.42857 0.67343,-0.67344 2.18371,0.67343 2.85714,0 0.33672,-0.33672 -0.33672,-1.09186 0,-1.42857 0.33672,-0.33672 1.09186,0.33671 1.42857,0 0.33672,-0.33672 -0.33671,-1.09186 0,-1.42858 0.67344,-0.67343 2.18371,0.67344 2.85715,0 0.33671,-0.33671 0,-0.95238 0,-1.42857 0.47619,0 1.09185,0.33672 1.42857,0 0.33671,-0.33672 -0.33672,-1.09185 0,-1.42857 0.34376,-0.34376 5.37052,0.34376 5.71428,0 0.33672,-0.33672 -0.33671,-1.09185 0,-1.42857 0.33672,-0.33672 0.95238,0 1.42857,0 0.47619,0 0.95239,0 1.42858,0 3.79549,0 5.45993,0.52056 10,1.42857 z"
         style="fill:none;stroke:#000000;stroke-width:1px;stroke-linecap:butt;stroke-linejoin:miter;stroke-opacity:1" />
      <path
         inkscape:connector-curvature="0"
         id="path2987"
         d="m 228.57143,318.07647 c 6.09524,-4.57143 3.33333,-4.28572 7.14286,-4.28572 0.47619,0 1.09185,0.33672 1.42857,0 0.33671,-0.33671 -0.33672,-1.09185 0,-1.42857 0.33671,-0.33672 0.95238,0 1.42857,0 0.47619,0 0.95238,0 1.42857,0 0.34647,0 4.23977,0.0459 4.28571,0 0.33672,-0.33672 -0.33671,-1.09185 0,-1.42857 0.33672,-0.33672 0.95239,0 1.42858,0 2.38095,0 4.7619,0 7.14285,0 2.38096,0 4.76191,0 7.14286,0 0.47619,0 1.09185,-0.33672 1.42857,0 0.33672,0.33672 -0.33672,1.09185 0,1.42857 0.67344,0.67344 2.18371,-0.67343 2.85714,0 0.33672,0.33672 -0.33671,1.09186 0,1.42857 0.67344,0.67344 2.18371,-0.67343 2.85715,0 0.33671,0.33672 -0.33672,1.09186 0,1.42858 0.33671,0.33671 1.09185,-0.33672 1.42857,0 0.33672,0.33671 -0.33672,1.09185 0,1.42857 0.67343,0.67343 2.18371,-0.67344 2.85714,0 0.33672,0.33671 -0.33672,1.09185 0,1.42857 0.33672,0.33672 1.09186,-0.33672 1.42857,0 0.33672,0.33672 -0.33671,1.09185 0,1.42857 0.33672,0.33672 1.09186,-0.33672 1.42857,0 0.67344,0.67343 -0.67343,2.18371 0,2.85714 0.33672,0.33672 1.09186,-0.33672 1.42858,0 0.71428,0.71429 -0.71429,3.57143 0,4.28572 1.90476,1.90476 1.42857,-2.38096 1.42857,1.42857 0,0.47619 0,0.95238 0,1.42857 0,0.47619 -0.33672,1.09185 0,1.42857 0.33671,0.33672 1.09185,-0.33672 1.42857,0 0.33672,0.33672 0,0.95238 0,1.42857 0,2.38095 0,4.76191 0,7.14286 0,0.47619 0,0.95238 0,1.42857 0,0.47619 0.33672,1.09185 0,1.42857 -0.33672,0.33672 -1.09186,-0.33672 -1.42857,0 -0.33672,0.33672 0.33671,1.09186 0,1.42857 -0.33672,0.33672 -1.09186,-0.33671 -1.42857,0 -0.33672,0.33672 0.33671,1.09186 0,1.42858 -0.33672,0.33671 -1.09186,-0.33672 -1.42858,0 -0.33671,0.33671 0.33672,1.09185 0,1.42857 -0.71428,0.71428 -3.57142,-0.71429 -4.28571,0 -0.33672,0.33671 0.33672,1.09185 0,1.42857 -0.33672,0.33672 -0.95238,0 -1.42857,0 -2.85714,0 -5.71429,0 -8.57143,0 -4.28571,0 -8.57143,0 -12.85714,0 -0.47619,0 -0.95238,0 -1.42857,0 -0.47619,0 -1.09186,0.33672 -1.42858,0 -0.33671,-0.33672 0.33672,-1.09186 0,-1.42857 -0.33671,-0.33672 -1.09185,0.33671 -1.42857,0 -0.33671,-0.33672 0.33672,-1.09186 0,-1.42857 -0.33671,-0.33672 -1.09185,0.33671 -1.42857,0 -0.33672,-0.33672 0,-0.95239 0,-1.42858 -0.47619,0 -1.09185,0.33672 -1.42857,0 -0.33672,-0.33671 0.33672,-1.09185 0,-1.42857 -0.33672,-0.33672 -1.09185,0.33672 -1.42857,0 -0.33672,-0.33672 0.33672,-1.09185 0,-1.42857 -0.33672,-0.33672 -1.09186,0.33672 -1.42857,0 -0.67344,-0.67343 0.67343,-2.18371 0,-2.85714 -0.33672,-0.33672 -1.09186,0.33672 -1.42857,0 -0.046,-0.0459 0,-3.93925 0,-4.28572 0,-3.35025 0.33671,0.67344 -1.42858,-2.85714 -0.38949,-0.77898 0.39099,-5.1278 0,-5.71428 -1.69134,-2.53702 -3.80952,-4.76191 -5.71428,-7.14286 z"
         style="fill:none;stroke:#000000;stroke-width:1px;stroke-linecap:butt;stroke-linejoin:miter;stroke-opacity:1" />
      <path
         inkscape:connector-curvature="0"
         id="path2989"
         d="m 338.57143,318.07647 c 6.19047,0 12.38095,0 18.57143,0 4.28571,0 8.57143,0 12.85714,0 0.74703,0 5.33866,-0.18782 5.71429,0 0.60233,0.30117 0.82623,1.1274 1.42857,1.42857 0.42592,0.21296 0.95238,0 1.42857,0 0.47619,0 0.95238,0 1.42857,0 0.47619,0 0.95238,0 1.42857,0 0.47619,0 1.09186,-0.33672 1.42857,0 0.33672,0.33672 -0.33671,1.09185 0,1.42857 0.34376,0.34376 5.37053,-0.34376 5.71429,0 0.33672,0.33672 -0.33672,1.09185 0,1.42857 0.67343,0.67344 2.18371,-0.67343 2.85714,0 0.33672,0.33672 -0.33672,1.09186 0,1.42857 0.33672,0.33672 1.09186,-0.33671 1.42857,0 0.67344,0.67344 -0.67343,2.18371 0,2.85715 0.33672,0.33671 1.09186,-0.33672 1.42857,0 0.0575,0.0575 0,5.18966 0,5.71428 0,0.52463 0.0575,5.6568 0,5.71429 -0.33671,0.33672 -1.09185,-0.33672 -1.42857,0 -0.33671,0.33672 0.33672,1.09185 0,1.42857 -0.33671,0.33672 -1.09185,-0.33672 -1.42857,0 -0.67343,0.67343 0.67344,2.18371 0,2.85714 -0.33672,0.33672 -1.09185,-0.33672 -1.42857,0 -0.33672,0.33672 0.33672,1.09186 0,1.42857 -0.33672,0.33672 -1.09185,-0.33671 -1.42857,0 -0.33672,0.33672 0.33672,1.09186 0,1.42858 -0.33672,0.33671 -1.09186,-0.33672 -1.42857,0 -0.33672,0.33671 0.33671,1.09185 0,1.42857 -0.33672,0.33671 -1.09186,-0.33672 -1.42857,0 -0.33672,0.33671 0.33671,1.09185 0,1.42857 -0.67344,0.67343 -2.18371,-0.67344 -2.85715,0 -0.33671,0.33672 0.33672,1.09185 0,1.42857 -0.33671,0.33672 -1.00265,-0.21296 -1.42857,0 -0.60234,0.30117 -0.82623,1.1274 -1.42857,1.42857 -0.42592,0.21296 -1.09185,-0.33672 -1.42857,0 -0.33672,0.33672 0.33672,1.09185 0,1.42857 -0.67344,0.67344 -2.00531,-0.42592 -2.85714,0 -0.60234,0.30117 -0.82624,1.1274 -1.42858,1.42857 -0.51661,0.25831 -6.14922,0 -7.14285,0 -0.67357,0 -7.07811,0.0648 -7.14286,0 -0.33672,-0.33671 0.33672,-1.09185 0,-1.42857 -0.67343,-0.67343 -2.18371,0.67344 -2.85714,0 -0.33672,-0.33672 0.33671,-1.09185 0,-1.42857 -0.67344,-0.67343 -2.18371,0.67344 -2.85715,0 -0.33671,-0.33672 0.33672,-1.09185 0,-1.42857 -0.33671,-0.33672 -1.09185,0.33672 -1.42857,0 -0.33671,-0.33672 0.33672,-1.09185 0,-1.42857 -0.33671,-0.33672 -1.09185,0.33672 -1.42857,0 -0.33672,-0.33672 0.33672,-1.09186 0,-1.42857 -0.33672,-0.33672 -1.09185,0.33671 -1.42857,0 -0.33672,-0.33672 0.33672,-1.09186 0,-1.42857 -0.67343,-0.67344 -2.18371,0.67343 -2.85714,0 -0.33672,-0.33672 0.33671,-1.09186 0,-1.42858 -0.33672,-0.33671 -0.95238,0 -1.42857,0 0,-0.47619 0.33671,-1.09185 0,-1.42857 -0.33672,-0.33672 -1.09186,0.33672 -1.42858,0 -0.33671,-0.33672 0.33672,-1.09185 0,-1.42857 -0.67343,-0.67343 -2.1837,0.67344 -2.85714,0 -0.33672,-0.33672 0.33672,-1.09185 0,-1.42857 -0.33672,-0.33672 -1.09185,0.33672 -1.42857,0 -0.33672,-0.33672 0.33672,-1.09185 0,-1.42857 -0.33672,-0.33672 -1.09185,0.33672 -1.42857,0 -0.67344,-0.67344 0.67343,-2.18371 0,-2.85714 -0.33672,-0.33672 -1.09186,0.33671 -1.42857,0 -0.14286,-0.14286 -0.14286,-4.14286 0,-4.28572 0.33671,-0.33672 1.09185,0.33672 1.42857,0 0.67343,-0.67343 -0.67344,-2.18371 0,-2.85714 0.33672,-0.33672 1.09185,0.33672 1.42857,0 0.67344,-0.67344 -0.67343,-2.18371 0,-2.85714 0.33672,-0.33672 1.52196,0.46694 1.42857,0 -1.69878,-8.49393 -6.79012,-8.12611 2.85714,-5.71429"
         style="fill:none;stroke:#000000;stroke-width:1px;stroke-linecap:butt;stroke-linejoin:miter;stroke-opacity:1" />
      <path
         sodipodi:nodetypes="csccscssssccssc"
         inkscape:connector-curvature="0"
         id="path2991"
         d="m 305.71429,358.07647 c 0,3.80952 0,7.61905 0,11.42857 0,0.47619 -0.33672,1.09185 0,1.42857 0.33671,0.33672 1.09185,-0.33672 1.42857,0 0.33671,0.33672 0,0.95238 0,1.42857 0,0.67357 -0.0648,7.07811 0,7.14286 0.33671,0.33672 1.09185,-0.33672 1.42857,0 0.33672,0.33672 0,0.95238 0,1.42857 0,3.33333 0,6.66667 0,10 0,0.47619 0,0.95238 0,1.42857 0,0.47619 -0.33672,1.09186 0,1.42857 0.33672,0.33672 1.09185,-0.33671 1.42857,0 0.33672,0.33672 0,0.95238 0,1.42858 0,0.47619 0,0.95238 0,1.42857 0,4.28571 1.42857,17.14286 1.42857,21.42857"
         style="fill:none;stroke:#000000;stroke-width:1px;stroke-linecap:butt;stroke-linejoin:miter;stroke-opacity:1" />
      <path
         inkscape:connector-curvature="0"
         id="path2993"
         d="m 254.28571,426.6479 c -0.73005,-8.62315 5.42593,0.28835 7.14286,-1.42857 0.33672,-0.33672 -0.33672,-1.09186 0,-1.42858 0.33672,-0.33671 0.95238,0 1.42857,0 0.47619,0 0.95238,0 1.42857,0 0.47619,0 0.95239,0 1.42858,0 0.47619,0 1.09185,0.33672 1.42857,0 0.33671,-0.33671 -0.33672,-1.09185 0,-1.42857 0.71428,-0.71428 3.57143,0.71429 4.28571,0 0.33672,-0.33672 -0.33672,-1.09185 0,-1.42857 0.71429,-0.71428 3.57143,0.71429 4.28572,0 0.33671,-0.33672 -0.33672,-1.09185 0,-1.42857 0.71428,-0.71429 3.57142,0.71429 4.28571,0 0.33672,-0.33672 -0.33672,-1.09185 0,-1.42857 0.0648,-0.0647 6.46929,0 7.14286,0 0.47619,0 1.09185,0.33672 1.42857,0 0.33672,-0.33672 -0.33672,-1.09186 0,-1.42857 0.0459,-0.046 3.93925,0 4.28571,0 7.61905,0 15.2381,0 22.85715,0 4.28571,0 8.57142,0 12.85714,0 0.47619,0 0.95238,0 1.42857,0 0.47619,0 1.09185,-0.33672 1.42857,0 0.33672,0.33671 -0.33672,1.09185 0,1.42857 0.33672,0.33672 0.95238,0 1.42857,0 0.99363,0 6.62624,-0.25831 7.14286,0 0.60234,0.30117 0.82623,1.1274 1.42857,1.42857 0.98676,0.49338 6.6414,-0.50146 7.14286,0 0.33672,0.33672 -0.33672,1.09185 0,1.42857 0.71428,0.71429 3.57143,-0.71428 4.28571,0 0.33672,0.33672 -0.33671,1.09185 0,1.42857 0.67344,0.67344 2.18371,-0.67343 2.85715,0 0.33671,0.33672 -0.33672,1.09186 0,1.42857 0.33671,0.33672 1.09185,-0.33671 1.42857,0 0.33671,0.33672 -0.21296,1.00266 0,1.42858 0.18965,0.3793 3.90641,4.09606 4.28571,4.28571 0.42592,0.21296 1.09186,-0.33672 1.42857,0 0.33672,0.33672 0,0.95238 0,1.42857"
         style="fill:none;stroke:#000000;stroke-width:1px;stroke-linecap:butt;stroke-linejoin:miter;stroke-opacity:1" />
      <path
         sodipodi:nodetypes="ccssccsssc"
         inkscape:connector-curvature="0"
         id="path2995"
         d="m 251.42857,308.07647 c -0.47619,1.90476 -0.95238,3.80952 -1.42857,5.71428 -0.47619,0.47619 -1.1274,0.82624 -1.42857,1.42858 -0.42592,0.85183 0.67343,2.1837 0,2.85714 -0.33672,0.33672 -1.09186,-0.33672 -1.42857,0 -0.34376,0.34376 0.34376,5.37053 0,5.71428 -0.33672,0.33672 -1.09186,-0.33671 -1.42857,0 -0.33672,0.33672 0,0.95238 0,1.42858 0,0.47619 0,0.95238 0,1.42857 0,5.71428 -0.75761,15.46918 -0.75761,21.18346"
         style="fill:none;stroke:#000000;stroke-width:1px;stroke-linecap:butt;stroke-linejoin:miter;stroke-opacity:1" />
      <path
         sodipodi:nodetypes="csscsccsssccscscc"
         inkscape:connector-curvature="0"
         id="path2997"
         d="m 257.14286,310.93361 c 11.17933,-1.66314 1.04386,5.32958 2.85714,7.14286 0.33672,0.33672 1.09185,-0.33672 1.42857,0 0.33672,0.33672 -0.33672,1.09185 0,1.42857 3.80953,0 -0.47619,-0.47619 1.42857,1.42857 0.33672,0.33672 1.09186,-0.33672 1.42857,0 0.71429,0.71429 -0.71428,3.57143 0,4.28572 0.33672,0.33671 1.09186,-0.33672 1.42858,0 0.33671,0.33671 0,0.95238 0,1.42857 0,0.74703 0.18781,5.33865 0,5.71428 -0.30117,0.60234 -1.12741,0.82624 -1.42858,1.42857 -0.2832,0.56642 0.29206,3.99367 0,4.28572 -0.33671,0.33672 -1.09185,-0.33672 -1.42857,0 -0.71428,0.71428 0.71429,3.57143 0,4.28571 -0.33671,0.33672 -1.09185,-0.33672 -1.42857,0 -0.33672,0.33672 0.33672,1.09186 0,1.42857 C 259.52381,345.69552 260,343.68264 260,347.49217"
         style="fill:none;stroke:#000000;stroke-width:1px;stroke-linecap:butt;stroke-linejoin:miter;stroke-opacity:1" />
      <path
         inkscape:connector-curvature="0"
         id="path2999"
         d="m 365.71429,318.07647 c -14.38835,-3.13546 -2.32233,5.17947 -4.28572,7.14286 -0.33672,0.33671 -1.09185,-0.33672 -1.42857,0 -0.33672,0.33671 0.33672,1.09185 0,1.42857 -0.33672,0.33671 -1.09185,-0.33672 -1.42857,0 -0.67344,0.67343 0.67343,2.1837 0,2.85714 -0.33672,0.33672 -1.09186,-0.33672 -1.42857,0 -0.67344,0.67343 0.67343,2.18371 0,2.85714 -0.33672,0.33672 -1.09186,-0.33672 -1.42857,0 -0.95523,0.95523 0.95522,1.90192 0,2.85715 -0.33672,0.33671 -1.09186,-0.33672 -1.42858,0 -0.67343,0.67343 0.67344,2.1837 0,2.85714 -0.33671,0.33672 -1.09185,-0.33672 -1.42857,0 -0.33671,0.33672 0,0.95238 0,1.42857 0,0.47619 0,0.95238 0,1.42857 0,2.85714 0,5.71429 0,8.57143 0,0.47619 -0.33671,1.09185 0,1.42857 1.90476,1.90476 1.42857,-2.38095 1.42857,1.42857"
         style="fill:none;stroke:#000000;stroke-width:1px;stroke-linecap:butt;stroke-linejoin:miter;stroke-opacity:1" />
      <path
         sodipodi:nodetypes="csscssssssscccscsssc"
         inkscape:connector-curvature="0"
         id="path3001"
         d="m 375.71429,316.6479 c 0,1.90476 1.90476,5.71428 0,5.71428 -1.90477,0 -1.34687,-7.06115 0,-5.71428 1.71693,1.71693 1.02939,4.74779 1.42857,7.14285 0.0783,0.46972 -0.33672,1.09186 0,1.42858 0.33671,0.33671 1.09185,-0.33672 1.42857,0 0.67343,0.67343 -0.67344,2.1837 0,2.85714 0.33672,0.33672 1.09185,-0.33672 1.42857,0 0.67344,0.67343 -0.67343,2.18371 0,2.85714 0.33672,0.33672 1.09185,-0.33672 1.42857,0 0.33672,0.33672 -0.33672,1.09185 0,1.42857 0.33672,0.33672 1.09186,-0.33672 1.42857,0 0.71429,0.71429 -0.71428,3.57143 0,4.28572 0.33672,0.33671 1.09186,-0.33672 1.42857,0 0.33672,0.33671 0,0.95238 0,1.42857 0,0.67357 0.0648,7.07811 0,7.14286 -0.33671,0.33671 -1.09185,-0.33672 -1.42857,0 -0.33671,0.33671 0.33672,1.09185 0,1.42857 -0.67343,0.67343 -2.1837,-0.67344 -2.85714,0 -1.90476,1.90476 -0.39697,5.46918 -4.20649,5.46918"
         style="fill:none;stroke:#000000;stroke-width:1px;stroke-linecap:butt;stroke-linejoin:miter;stroke-opacity:1" />
      <path
         inkscape:connector-curvature="0"
         id="path3003"
         d="m 182.85714,475.21933 c -1.90476,0 -5.71428,1.90476 -5.71428,0 0,-1.90477 7.06115,1.34687 5.71428,0 -1.71693,-1.71693 -4.88842,-0.5268 -7.14285,-1.42858 -0.44214,-0.17685 0.33671,-1.09185 0,-1.42857 -0.67344,-0.67343 -2.18371,0.67344 -2.85715,0 -0.33671,-0.33672 0.33672,-1.09185 0,-1.42857 -0.33671,-0.33672 -1.00265,0.21296 -1.42857,0 -1.71428,-0.85714 -2.57143,-3.42857 -4.28571,-4.28571 -0.42592,-0.21296 -1.09186,0.33671 -1.42857,0 -0.33672,-0.33672 0.33671,-1.09186 0,-1.42857 -0.33672,-0.33672 -1.09186,0.33671 -1.42858,0 -0.33671,-0.33672 0.33672,-1.09186 0,-1.42858 -0.33671,-0.33671 -1.09185,0.33672 -1.42857,0 -0.67343,-0.67343 0.67344,-2.1837 0,-2.85714 -0.33671,-0.33672 -1.09185,0.33672 -1.42857,0 -0.33672,-0.33672 0.33672,-1.09185 0,-1.42857 -0.33672,-0.33672 -1.09185,0.33672 -1.42857,0 -0.67343,-0.67344 0.67344,-2.18371 0,-2.85714 -0.33672,-0.33672 -1.09185,0.33671 -1.42857,0 -0.33672,-0.33672 0,-0.95238 0,-1.42857 0,-0.4762 0,-0.95239 0,-1.42858 0,-3.80952 0,-7.61904 0,-11.42857 0,-0.47619 0,-0.95238 0,-1.42857 0,-0.47619 -0.33672,-1.09185 0,-1.42857 0.33672,-0.33672 1.09185,0.33672 1.42857,0 0.44235,-0.44235 -0.44235,-6.7005 0,-7.14286 0.33672,-0.33672 1.09185,0.33672 1.42857,0 0.34376,-0.34376 -0.34376,-5.37052 0,-5.71428 0.33672,-0.33672 1.09186,0.33671 1.42857,0 0.71429,-0.71429 -0.71428,-3.57143 0,-4.28572 0.33672,-0.33672 1.09186,0.33672 1.42857,0 0.39089,-0.39089 -0.38749,-4.9393 0,-5.71428 0.30117,-0.60234 1.12741,-0.82624 1.42858,-1.42857 0.0975,-0.19511 0.0975,-8.37633 0,-8.57143 -0.30117,-0.60234 -1.12741,-0.82624 -1.42858,-1.42857 -0.25831,-0.51662 0,-6.14923 0,-7.14286 0,-0.47619 0.33672,-1.09186 0,-1.42857 -0.33671,-0.33672 -1.09185,0.33671 -1.42857,0 -0.29205,-0.29206 0.28321,-3.7193 0,-4.28572 -0.30117,-0.60234 -1.1274,-0.82623 -1.42857,-1.42857 -0.42592,-0.85183 0.67344,-2.18371 0,-2.85714 -0.33672,-0.33672 -1.09185,0.33672 -1.42857,0 -0.71429,-0.71429 0.71429,-3.57143 0,-4.28572 -0.33672,-0.33671 -1.09185,0.33672 -1.42857,0 -0.67344,-0.67343 0.67343,-2.1837 0,-2.85714 -0.33672,-0.33672 -1.09186,0.33672 -1.42857,0 -0.67344,-0.67343 0.67343,-2.18371 0,-2.85714 -0.33672,-0.33672 -1.09186,0.33672 -1.42857,0 -0.67344,-0.67344 0.67343,-2.18371 0,-2.85714 -0.33672,-0.33672 -1.09186,0.33671 -1.42858,0 -0.71428,-0.71429 0.71429,-3.57143 0,-4.28572 -0.33671,-0.33672 -1.09185,0.33672 -1.42857,0 -0.33671,-0.33672 0.21296,-1.00265 0,-1.42857 -0.30117,-0.60234 -1.1274,-0.82623 -1.42857,-1.42857 -0.21296,-0.42592 0.33672,-1.09186 0,-1.42857 -0.33672,-0.33672 -1.09185,0.33671 -1.42857,0 -0.33672,-0.33672 0.21296,-1.00266 0,-1.42857 -0.30117,-0.60234 -1.1274,-0.82624 -1.42857,-1.42858 -0.21296,-0.42591 0.33672,-1.09185 0,-1.42857 -0.33672,-0.33672 -1.09186,0.33672 -1.42857,0 -0.33672,-0.33672 0.33671,-1.09185 0,-1.42857 -0.33672,-0.33672 -1.09186,0.33672 -1.42857,0 -0.33672,-0.33672 0.33671,-1.09185 0,-1.42857 -0.33672,-0.33672 -1.09186,0.33672 -1.42858,0 -0.67343,-0.67344 0.67344,-2.18371 0,-2.85714 -0.33671,-0.33672 -1.09185,0.33671 -1.42857,0 -0.33671,-0.33672 0,-0.95238 0,-1.42857 0,-0.4762 -0.47619,-1.42858 0,-1.42858 0.47619,0 0,0.95238 0,1.42858 0,1.42857 0,2.85714 0,4.28571 0,2.38095 0,4.7619 0,7.14286 0,0.47619 0.33672,1.09185 0,1.42857 -0.33671,0.33672 -1.09185,-0.33672 -1.42857,0 -0.71428,0.71428 0.71429,3.57143 0,4.28571 -0.33672,0.33672 -1.09185,-0.33672 -1.42857,0 -0.67343,0.67344 0.67344,2.18371 0,2.85715 -0.33672,0.33671 -1.09185,-0.33672 -1.42857,0 -0.34376,0.34375 0.34376,5.37052 0,5.71428 -0.33672,0.33672 -1.09186,-0.33672 -1.42857,0 -0.34376,0.34376 0.34376,5.37053 0,5.71429 -0.33672,0.33671 -1.09186,-0.33672 -1.42857,0 -0.34376,0.34376 0.34375,5.37052 0,5.71428 -0.33672,0.33672 -1.09186,-0.33672 -1.42858,0 -0.34375,0.34376 0.34376,5.37053 0,5.71429 -0.33671,0.33672 -1.09185,-0.33672 -1.42857,0 -0.71428,0.71428 0.71429,3.57143 0,4.28571 -0.33671,0.33672 -1.09185,-0.33672 -1.42857,0 -0.34376,0.34376 0.34376,5.37053 0,5.71429 -0.33672,0.33672 -1.09185,-0.33672 -1.42857,0 -0.33672,0.33672 0,0.95238 0,1.42857 0,0.67357 0.0648,7.07811 0,7.14286 -0.33672,0.33671 -1.09185,-0.33672 -1.42857,0 -0.0648,0.0647 0,6.46929 0,7.14285 0,2.85715 0,5.71429 0,8.57143 0,0.47619 -0.33672,1.09186 0,1.42857 0.33672,0.33672 1.09185,-0.33671 1.42857,0 0.71429,0.71429 -0.71429,3.57143 0,4.28572 0.33672,0.33672 1.09185,-0.33672 1.42857,0 0.67344,0.67343 -0.67343,2.18371 0,2.85714 0.33672,0.33672 1.09186,-0.33672 1.42857,0 0.33672,0.33672 -0.33671,1.09185 0,1.42857 0.33672,0.33672 1.09186,-0.33672 1.42857,0 0.67344,0.67344 -0.67343,2.18371 0,2.85715 0.33672,0.33671 1.09186,-0.33672 1.42858,0 0.33671,0.33671 -0.33672,1.09185 0,1.42857 0.33671,0.33671 1.09185,-0.33672 1.42857,0 0.33671,0.33671 -0.33672,1.09185 0,1.42857 3.80952,0 -0.47619,-0.47619 1.42857,1.42857 0.33672,0.33672 1.09185,-0.33672 1.42857,0 0.67344,0.67343 -0.67343,2.18371 0,2.85714 0.33672,0.33672 1.09185,-0.33672 1.42857,0 0.33672,0.33672 -0.33672,1.09186 0,1.42857 0.33672,0.33672 1.09186,-0.33671 1.42857,0 0.33672,0.33672 -0.33671,1.09186 0,1.42858 0.33672,0.33671 1.09186,-0.33672 1.42857,0 0.33672,0.33671 -0.33671,1.09185 0,1.42857 0.33672,0.33671 1.09186,-0.33672 1.42858,0 0.33671,0.33671 0,0.95238 0,1.42857 0.47619,0 1.09185,-0.33672 1.42857,0 0.67343,0.67343 -0.67344,2.18371 0,2.85714 0.33671,0.33672 1.09185,-0.33672 1.42857,0 0.33672,0.33672 -0.33672,1.09185 0,1.42857 0.33672,0.33672 1.09185,-0.33672 1.42857,0 0.33672,0.33672 -0.33672,1.09186 0,1.42857 0.33672,0.33672 1.09185,-0.33671 1.42857,0 0.33672,0.33672 0,0.95238 0,1.42858 0.47619,0 1.09186,-0.33672 1.42857,0 0.33672,0.33671 -0.33671,1.09185 0,1.42857 0.33672,0.33671 1.09186,-0.33672 1.42857,0 0.33672,0.33671 -0.33671,1.09185 0,1.42857 0.33672,0.33672 1.09186,-0.33672 1.42858,0 0.33671,0.33672 -0.33672,1.09185 0,1.42857 0.33671,0.33672 1.09185,-0.33672 1.42857,0 0.67343,0.67343 -0.67344,2.18371 0,2.85714 0.33671,0.33672 1.09185,-0.33672 1.42857,0 0.33672,0.33672 -0.33672,1.09186 0,1.42857 0.33672,0.33672 1.09185,-0.33671 1.42857,0 0.33672,0.33672 -0.33672,1.09186 0,1.42858 0.33672,0.33671 1.09185,-0.33672 1.42857,0 0.67344,0.67343 -0.67343,2.1837 0,2.85714 0.33672,0.33672 1.09186,-0.33672 1.42857,0 0.67344,0.67343 -0.67343,2.18371 0,2.85714 0.33672,0.33672 1.09186,-0.33672 1.42857,0 0.33672,0.33672 0,0.95238 0,1.42857 0,0.47619 0.47619,1.42857 0,1.42857 -0.47619,0 0,-1.90476 0,-1.42857 0,1.42857 0,2.85715 0,4.28572 0,0.47619 0.47619,1.42857 0,1.42857 -0.47619,0 0,-0.95238 0,-1.42857"
         style="fill:none;stroke:#000000;stroke-width:1px;stroke-linecap:butt;stroke-linejoin:miter;stroke-opacity:1" />
      <path
         sodipodi:nodetypes="ssscssscsssssssscsssssssssscssssssccsssssssscssssscsssssssccsccssssscsssssscsssccccsssscsscsccssssssssssscss"
         inkscape:connector-curvature="0"
         id="path3007"
         d="m 430.56998,627.46735 c -4.23794,-1.47274 -11.49397,-6.14314 -17.84174,-11.484 -10.34873,-8.70715 -10.8864,-9.47764 -16.42857,-23.54255 l -5.72969,-14.54079 -11.98868,0 c -11.50976,0 -12.10899,0.162 -15,4.05526 -2.63626,3.55017 -2.983,5.8343 -2.78395,18.33906 l 0.22738,14.28382 -25.22738,-0.91075 c -30.03647,-1.08437 -44.12508,-3.08739 -45.9706,-6.53576 -0.71384,-1.33381 -1.74034,-10.25434 -2.28114,-19.8234 -0.82193,-14.54364 -1.39773,-17.62011 -3.50931,-18.7502 -3.15126,-1.6865 -42.37081,-3.56486 -47.50863,-2.27534 -5.24428,1.31623 -9.24264,9.81215 -11.22937,23.8607 -1.46834,10.38294 -2.01167,11.6967 -5.60617,13.55548 -2.29451,1.18655 -8.00326,2.05827 -13.47906,2.05827 l -9.4988,0 0.8341,-12.5 c 0.45875,-6.875 1.21681,-15.7148 1.68457,-19.64401 0.75776,-6.36504 0.45836,-7.51239 -2.74585,-10.52259 -2.25122,-2.11491 -5.97755,-3.647 -9.96272,-4.09618 -5.93781,-0.66927 -6.81435,-0.30463 -13.02146,5.41687 -3.6603,3.37396 -10.22109,11.54937 -14.57954,18.16761 -7.01237,10.64818 -8.81705,12.4279 -15.67965,15.46288 -4.26536,1.88634 -8.01118,3.42971 -8.32403,3.42971 -0.31286,0 -2.35536,-3.69643 -4.5389,-8.21429 -3.80972,-7.88251 -3.99151,-9.25871 -4.50096,-34.07332 l -0.53089,-25.85906 4.16436,-9.18429 c 5.56116,-12.26487 10.70553,-17.79733 26.42187,-28.4151 7.26343,-4.9071 15.88586,-11.08595 19.16095,-13.73081 3.27509,-2.64487 6.65009,-4.80884 7.5,-4.80884 0.84991,0 1.54529,-0.8237 1.54529,-1.83043 0,-2.13189 14.24188,-16.23949 21.1932,-20.99337 3.7384,-2.55663 6.66146,-3.24142 13.57142,-3.17935 4.84375,0.0436 8.00434,-0.24831 7.02355,-0.64853 -1.02919,-0.41995 -1.45542,-2.03684 -1.00796,-3.8237 0.58666,-2.34277 -1.87358,-6.39805 -10.11173,-16.66748 -13.62791,-16.98814 -16.74499,-22.31207 -20.91012,-35.71429 -2.84163,-9.14353 -3.32979,-13.75107 -3.32979,-31.42857 0,-24.08858 2.22263,-32.39307 13.06597,-48.81879 11.1916,-16.95328 27.67198,-29.07341 50.50546,-37.14313 20.4325,-7.22117 65.72364,-10.38914 86.84594,-6.07459 12.32498,2.51756 33.7645,9.5262 42.41566,13.86579 6.03393,3.02674 16.3837,11.05901 16.42693,12.74864 0.0143,0.55357 1.58443,2.56517 3.48947,4.4702 5.07907,5.07909 11.9653,19.55849 14.55046,30.59472 1.6612,7.0918 2.09236,14.36707 1.62974,27.50002 -0.5507,15.63311 -1.1905,19.35926 -5.13706,29.91788 -11.01237,29.46248 -34.28301,59.04805 -52.39775,66.61686 -2.93823,1.22767 -4.77549,2.73633 -4.08282,3.35259 0.69269,0.61625 6.94963,3.42991 13.90432,6.25257 25.60141,10.39067 38.65175,19.91978 52.7816,38.5401 5.74643,7.57266 9.7551,19.03237 20.35068,58.17714 3.7218,13.75 9.62388,31.42857 13.1157,39.28572 3.49183,7.85714 7.25033,16.33432 8.35223,18.8382 2.33907,5.31517 2.56182,5.17828 -12.2451,7.52542 -12.38966,1.96396 -15.17424,1.83615 -23.57143,-1.082 z M 366.41425,428.78446 c 0,-0.64429 -9.77814,-10.7599 -10.40476,-10.76386 -0.17024,-10e-4 -8.04665,1.05584 -14.72522,-0.12059 -6.67857,-1.17643 -15.83929,-2.13983 -20.35714,-2.1409 -4.51786,-0.001 -8.22765,-0.4841 -8.24396,-1.07338 -0.0163,-0.58929 -0.9993,-10.07143 -2.1844,-21.07143 -1.1851,-11 -2.54674,-23.69643 -3.02589,-28.21429 -0.47913,-4.51786 -1.51795,-8.21428 -2.30851,-8.21428 -1.49083,0 -0.8849,9.6981 1.87438,30 0.80092,5.89285 1.84265,14.63572 2.31496,19.42859 l 0.85876,8.71431 -14.82124,0.81608 c -9.72288,0.53536 -17.76975,1.8683 -23.39268,3.87492 -5.25337,1.87474 -10.3976,2.77787 -13.28893,2.33302 -3.35778,-0.51661 -4.95274,-0.11285 -5.53363,1.40096 -1.02361,2.66749 0.75829,4.65016 2.15223,2.39473 0.63092,-1.02086 1.79929,-1.1944 3.00879,-0.44689 1.09371,0.67596 2.99203,0.67678 4.24801,10e-4 1.24887,-0.67113 6.77068,-2.70141 12.27068,-4.51175 8.9182,-2.93545 12.70448,-3.28876 35,-3.26602 30.2241,0.0309 41.81227,-0.27467 49.22857,6.62355 4.76951,4.43631 7.32998,5.91581 7.32998,4.2354 l 0,4e-4 z m 17.01772,-78.74493 c 8.26204,-5.68443 12.13801,-11.37197 12.13801,-17.81111 0,-7.56712 -2.12093,-10.45909 -8.95287,-12.20756 -3.32591,-0.8512 -7.01141,-1.94092 -8.18998,-2.42162 -2.30196,-0.93888 -40.15923,-0.73047 -41.11606,0.22635 -0.31593,0.31593 0.071,1.72777 0.85993,3.13743 1.0261,1.83355 0.82698,3.7375 -0.69959,6.68959 -3.0839,5.96359 -1.41211,10.02887 6.51816,15.85022 3.84953,2.82581 7.34776,6.04633 7.77386,7.15671 0.94032,2.45048 4.57148,3.21948 16.4063,3.4745 7.87014,0.16959 9.82804,-0.35567 15.26224,-4.09451 z m -106.41824,-4.99666 c 2.75288,-2.4859 3.0706,-3.89439 2.44517,-10.83979 -0.39536,-4.39045 -1.7571,-9.99045 -3.02612,-12.44444 -2.80027,-5.41514 -13.06323,-11.71577 -19.08355,-11.71577 -2.41906,0 -4.72435,-0.80357 -5.12287,-1.78572 -0.50773,-1.2513 -1.07777,-1.32293 -1.90476,-0.23934 -0.6491,0.8505 -5.02843,2.30589 -9.73184,3.23419 -4.7034,0.9283 -9.71027,2.84645 -11.12637,4.26255 -2.4806,2.48059 -2.47311,2.70392 0.20478,6.10831 1.52874,1.94347 3.24459,6.63488 3.81301,10.42536 0.69594,4.64086 2.45493,8.51071 5.38564,11.8486 l 4.35215,4.95683 15.31538,-0.47682 c 12.88975,-0.4013 15.81649,-0.92933 18.47938,-3.33396 z"
         style="fill:#ff7f2a;stroke:#d45500;stroke-width:2.85714293;stroke-linecap:round;stroke-linejoin:round;stroke-miterlimit:4;stroke-dasharray:none" />
      <path
         inkscape:connector-curvature="0"
         id="path3009"
         d="m 165.56998,483.17604 c 0,-3.4263 -5.6573,-11.40491 -20.54902,-28.98072 -6.19482,-7.31138 -12.21917,-15.57599 -13.38745,-18.36579 -3.73999,-8.93096 -1.85622,-19.95203 11.70592,-68.4859 l 1.75226,-6.27067 2.90841,4.12781 c 5.24185,7.43957 13.24602,27.62841 14.82923,37.40361 1.4026,8.66012 1.1969,10.93558 -2.13948,23.66631 -6.61795,25.25229 -4.8977,33.65242 9.06865,44.28298 3.98203,3.03095 7.24005,5.70907 7.24005,5.95139 0,0.24232 -2.57142,2.47719 -5.71428,4.96638 -5.11458,4.05082 -5.71429,4.22972 -5.71429,1.7046 z"
         style="fill:#ff7f2a;stroke:#d45500;stroke-width:2.85714293;stroke-linecap:round;stroke-linejoin:round;stroke-miterlimit:4;stroke-dasharray:none" />
      <path
         id="path3011"
         d="m 246.15625,311.65625 c -1.01306,0.0327 -1.07117,0.1615 -1.1875,0.625 -0.15467,0.61625 -0.22454,0.624 -2.5,0.625 -2.71632,0.002 -4.16703,0.34894 -4.75,1.09375 -0.33186,0.42394 -0.66766,0.51665 -1.59375,0.46875 -1.50518,-0.0779 -2.88051,0.56221 -4.8125,2.21875 -0.83338,0.71456 -1.55755,1.39586 -1.59375,1.5 -0.0362,0.10415 0.51317,0.85844 1.21875,1.6875 0.70557,0.82907 1.89523,2.33815 2.65625,3.34375 l 1.40625,1.8125 -0.0625,2.84375 c -0.0638,3.06745 0.0578,3.58327 0.8125,3.34375 0.55074,-0.1748 0.60305,0.12462 0.5,2.96875 -0.0803,2.21566 0.13579,3.21875 0.71875,3.21875 0.67724,0 1.09805,0.66603 0.9375,1.46875 -0.16931,0.84658 0.0236,1.20106 0.78125,1.4375 0.38494,0.12013 0.5625,0.36507 0.5625,0.78125 0,0.48854 0.14915,0.625 0.65625,0.625 0.51057,0 0.65631,0.15658 0.78125,0.78125 0.1308,0.65407 0.25098,0.75165 0.75,0.65625 0.51317,-0.0981 0.59375,-0.0292 0.59375,0.59375 0,0.52747 0.13693,0.75 0.46875,0.75 0.58181,0 1.0625,0.44944 1.0625,1.03125 0,0.25002 0.14837,0.46875 0.34375,0.46875 0.26918,0 0.38956,-0.57363 0.5,-2.34375 0.33282,-5.3343 0.65625,-13.7106 0.65625,-16.9375 l 0,-3.46875 0.78125,-0.15625 0.78125,-0.15625 -0.0625,-2.03125 c -0.10926,-3.39329 -0.0982,-3.4375 0.78125,-3.4375 l 0.78125,0 -0.15625,-1.21875 c -0.13966,-1.11553 -0.0861,-1.26416 0.75,-2.1875 0.4945,-0.54609 0.90625,-1.1095 0.90625,-1.28125 0,-0.17176 0.0407,-0.49905 0.125,-0.71875 0.13315,-0.34696 -0.13516,-0.40625 -2.21875,-0.40625 -0.58702,0 -1.03731,-0.0109 -1.375,0 z m 16.6875,1.375 c -0.0687,0.0136 -0.0937,0.0643 -0.0937,0.125 0,0.12137 -0.53122,1.04873 -1.15625,2.0625 -0.62504,1.01377 -1.125,1.92069 -1.125,2.03125 0,0.11051 0.31712,0.21875 0.71875,0.21875 0.55853,0 0.79085,0.13394 0.90625,0.59375 0.083,0.33064 0.3904,0.6723 0.6875,0.75 0.42159,0.11024 0.50275,0.27671 0.40625,0.78125 -0.10828,0.56643 -0.0434,0.65625 0.5625,0.65625 1.10868,0 1.37359,0.52899 1.1875,2.53125 -0.16117,1.73408 -0.15516,1.75 0.4375,1.75 0.3312,0 0.68393,0.13888 0.8125,0.3125 0.12853,0.17362 0.23055,1.98566 0.21875,4.03125 l -0.0312,3.71875 -0.78125,0.84375 -0.8125,0.84375 0.15625,2.0625 c 0.15566,2.01852 0.12151,2.0619 -0.46875,2.28125 -0.33287,0.1237 -0.74826,0.16575 -0.9375,0.0937 -0.25984,-0.099 -0.2978,0.0718 -0.1875,0.625 0.56248,2.8211 0.40346,3.625 -0.71875,3.625 -0.42612,0 -0.5951,0.096 -0.5,0.34375 0.0765,0.19925 -0.26661,0.8366 -0.78125,1.40625 -0.67251,0.74439 -0.86847,1.158 -0.75,1.53125 0.15518,0.48893 0.31239,0.48747 3.25,0.34375 1.69264,-0.0828 3.76038,-0.24114 4.59375,-0.375 0.83338,-0.13386 1.94382,-0.29835 2.46875,-0.34375 1.5043,-0.1302 2.29366,-0.38326 2.78125,-0.90625 0.24848,-0.26652 0.66512,-0.46875 0.9375,-0.46875 0.27238,0 0.48525,-0.11458 0.46875,-0.21875 -0.10291,-0.65176 0.0976,-1.02389 0.625,-1.15625 0.35961,-0.0903 0.6579,-0.41412 0.75,-0.78125 0.0966,-0.38505 0.36386,-0.6371 0.71875,-0.6875 0.54921,-0.078 0.57975,-0.16564 0.65625,-3.21875 0.0435,-1.7362 -0.004,-3.993 -0.0937,-5 -0.13752,-1.53721 -0.21046,-1.84375 -0.59375,-1.84375 -0.64036,0 -0.81465,-0.60501 -0.625,-2.28125 0.15054,-1.33068 0.1227,-1.46704 -0.375,-1.625 -0.93605,-0.29709 -1.37822,-1.24271 -1.1875,-2.59375 0.0932,-0.66001 0.2416,-1.38193 0.3125,-1.625 0.10253,-0.35154 -0.0207,-0.4375 -0.625,-0.4375 -0.94065,0 -1.12195,-0.28163 -1.09375,-1.6875 0.0192,-0.95756 -0.0532,-1.09375 -0.5,-1.09375 -0.34342,0 -0.62283,-0.27877 -0.8125,-0.78125 -0.2026,-0.53676 -0.43568,-0.75 -0.84375,-0.75 -0.3951,0 -0.59375,-0.1435 -0.59375,-0.46875 0,-0.61955 -0.57353,-1.07463 -1.09375,-0.875 -0.7173,0.27526 -1.65086,-0.13723 -1.8125,-0.78125 -0.0902,-0.35936 -0.41961,-0.6592 -0.78125,-0.75 -0.37302,-0.0936 -0.59375,-0.33535 -0.59375,-0.625 0,-0.58399 -0.53003,-0.81274 -1.46875,-0.625 -0.74788,0.14958 -1.5625,-0.38527 -1.5625,-1.03125 0,-0.18356 -0.16665,-0.38885 -0.375,-0.46875 -0.10417,-0.04 -0.21259,-0.0761 -0.28125,-0.0625 z m 84.96875,5.6875 c -2.65331,0.0299 -3.44302,0.1268 -3.375,0.3125 0.0636,0.17362 0.0297,0.4935 -0.0937,0.6875 -0.22255,0.34957 -0.82449,0.2303 -4,-0.65625 -0.56793,-0.15856 -0.57493,-0.13984 0.15625,1.40625 0.90984,1.92385 1.65509,4.6517 1.4375,5.21875 -0.1104,0.28769 -0.36579,0.3919 -0.78125,0.3125 -0.59099,-0.11298 -0.60258,-0.0988 -0.46875,1.03125 0.15187,1.2823 -0.28325,1.97013 -1.125,1.75 -0.38969,-0.10191 -0.4415,0.0515 -0.4375,1.28125 0.004,1.35516 -0.0215,1.4234 -0.6875,1.5 -0.65858,0.0758 -0.6875,0.15745 -0.6875,1.40625 0,1.22533 0.0589,1.3329 0.75,1.59375 0.66292,0.25022 0.7428,0.4046 0.8125,1.5 0.0669,1.05161 0.16967,1.2434 0.65625,1.3125 0.35489,0.0504 0.62215,0.30245 0.71875,0.6875 0.0922,0.36713 0.39038,0.69095 0.75,0.78125 0.36158,0.0908 0.59375,0.31643 0.59375,0.59375 0,0.63791 0.45581,0.86345 1.59375,0.78125 0.87606,-0.0633 0.98433,0.0149 1.25,0.71875 0.17835,0.47251 0.47356,0.78125 0.75,0.78125 0.25031,0 0.59877,0.26183 0.75,0.59375 0.15124,0.33193 0.54308,0.72377 0.875,0.875 0.38323,0.17461 0.59375,0.50389 0.59375,0.875 0,0.53803 0.12319,0.5725 1.34375,0.5625 1.26172,-0.0103 1.33015,0.0266 1.40625,0.6875 0.0628,0.54548 0.20479,0.6875 0.6875,0.6875 0.33801,0 0.62785,0.13888 0.65625,0.3125 0.0284,0.17362 0.13485,-1.71862 0.21875,-4.21875 0.0839,-2.50013 0.1609,-4.5903 0.1875,-4.625 0.0266,-0.0347 0.35574,-0.0625 0.71875,-0.0625 0.63714,0 0.62996,-0.0187 0.46875,-1.09375 -0.14422,-0.96171 -0.0654,-1.16966 0.40625,-1.5 0.30037,-0.21038 0.68761,-0.3219 0.875,-0.25 0.26935,0.10338 0.30551,-0.12859 0.1875,-1.125 -0.1328,-1.12133 -0.0893,-1.29729 0.40625,-1.5625 0.30629,-0.16428 0.71882,-0.2594 0.90625,-0.1875 0.25988,0.0997 0.29334,-0.0666 0.1875,-0.71875 -0.22206,-1.36841 0.0942,-2.15625 0.84375,-2.15625 0.61511,0 0.62756,-0.0348 0.46875,-1.09375 -0.14368,-0.95815 -0.0775,-1.16114 0.40625,-1.5 0.30694,-0.21495 0.72231,-0.30135 0.9375,-0.21875 0.25396,0.0975 0.33521,0.0322 0.21875,-0.15625 -0.28986,-0.46901 0.30426,-1.25725 1,-1.34375 0.64072,-0.0797 0.61393,-0.10754 -0.90625,-2.625 -0.83874,-1.38896 -1.53039,-2.67013 -1.53125,-2.84375 -10e-4,-0.24468 -1.53321,-0.3125 -6.8125,-0.3125 -1.33546,0 -2.42806,-0.01 -3.3125,0 z m 29.84375,1.53125 0,2.125 c 0,2.09187 0.009,2.15625 0.59375,2.15625 0.90219,0 1.23138,0.56545 1.03125,1.75 -0.15255,0.90295 -0.0961,1.03125 0.34375,1.03125 0.94104,0 1.32697,0.93987 0.96875,2.34375 -0.12974,0.50842 -0.10767,0.68705 0.125,0.65625 0.83898,-0.11103 1.22897,0.0744 1.375,0.65625 0.0872,0.34724 0.31664,0.625 0.5,0.625 0.82256,0 1.17033,0.79549 1,2.25 -0.0908,0.7756 -0.21435,1.6122 -0.28125,1.84375 -0.0928,0.32137 -0.0195,0.38441 0.375,0.28125 1.1546,-0.30193 1.28125,0.18156 1.28125,5.125 l 0,4.625 -0.78125,0.15625 c -0.42662,0.0937 -0.6995,0.238 -0.625,0.3125 0.0745,0.0745 0.009,0.34385 -0.125,0.59375 -0.19702,0.36814 -0.11624,0.45635 0.34375,0.53125 0.66694,0.10855 1.10654,-0.16356 1.3125,-0.8125 0.0814,-0.25645 0.4128,-0.519 0.71875,-0.5625 0.35671,-0.0507 0.5724,-0.28541 0.625,-0.65625 0.0562,-0.39649 0.31052,-0.5933 0.78125,-0.6875 0.45682,-0.0914 0.69305,-0.31526 0.71875,-0.65625 0.0481,-0.6388 0.14245,-0.73315 0.78125,-0.78125 0.34099,-0.0257 0.5336,-0.26193 0.625,-0.71875 0.0942,-0.47073 0.32226,-0.72505 0.71875,-0.78125 0.47166,-0.0669 0.6069,-0.24786 0.625,-0.96875 0.0356,-1.42135 0.0496,-1.50764 0.71875,-1.8125 0.35057,-0.15974 0.70005,-0.55158 0.78125,-0.875 0.0812,-0.32343 0.3203,-0.59375 0.5,-0.59375 0.63964,0 0.875,-1.6003 0.875,-5.84375 0,-3.99459 -0.0237,-4.25 -0.46875,-4.25 -0.74633,0 -1.13232,-0.64831 -0.96875,-1.65625 0.13357,-0.82309 0.0877,-0.9187 -0.59375,-1.15625 -0.45154,-0.1574 -0.75,-0.44383 -0.75,-0.71875 0,-0.54889 -0.58582,-0.82307 -1.375,-0.625 -0.42879,0.10762 -0.79811,-0.0611 -1.375,-0.625 -0.84357,-0.82461 -2.10278,-1.18027 -3.40625,-0.96875 -1.28393,0.20836 -2.18287,-0.049 -2.4375,-0.71875 -0.21474,-0.56481 -0.34272,-0.59375 -2.375,-0.59375 l -2.15625,0 z"
         style="fill:#e6e6e6;stroke:none"
         inkscape:connector-curvature="0" />
      <path
         id="path3022"
         d="m 251.1875,311.65625 -0.3125,1.21875 c -0.18429,0.76825 -0.56572,1.52275 -1.03125,1.96875 -0.66712,0.63918 -0.73535,0.80575 -0.59375,1.75 0.22724,1.51539 -0.0121,2.125 -0.875,2.125 l -0.71875,0 0.125,2.78125 0.125,2.78125 -0.78125,0.15625 -0.8125,0.15625 0,2.8125 c -0.003,1.54522 -0.17276,6.15257 -0.375,10.25 -0.20224,4.09743 -0.372,7.93397 -0.375,8.53125 l 0,1.09375 3.84375,-0.125 c 2.11816,-0.0802 5.24492,-0.2333 6.9375,-0.3125 l 3.09375,-0.125 -0.0312,-1.03125 c -0.0111,-0.80736 0.12315,-1.16207 0.625,-1.59375 0.39836,-0.34265 0.6998,-0.88125 0.75,-1.40625 0.0723,-0.75518 0.1653,-0.8663 0.90625,-0.9375 0.63881,-0.0614 0.80835,-0.1738 0.71875,-0.5 -0.0642,-0.23379 -0.19245,-0.97053 -0.28125,-1.625 -0.20034,-1.4758 0.13415,-2.21875 1.03125,-2.21875 0.65376,0 0.65674,-4.1e-4 0.5,-1.5 -0.1779,-1.70204 0.11602,-2.71029 0.9375,-3.34375 0.51924,-0.40038 0.5625,-0.62755 0.5625,-3.5625 0,-3.13094 -0.0295,-3.12467 -0.625,-3.125 -0.89656,-5e-4 -1.07976,-0.51642 -0.90625,-2.53125 0.13747,-1.59652 0.12552,-1.81961 -0.21875,-1.6875 -0.24536,0.0942 -0.70131,-0.13881 -1.1875,-0.625 -0.43039,-0.43039 -0.89957,-0.78125 -1.03125,-0.78125 -0.13169,0 -0.2917,-0.36456 -0.375,-0.78125 -0.11691,-0.58454 -0.29096,-0.75 -0.75,-0.75 -1.25796,0 -1.07609,-1.84639 0.4375,-4.28125 0.65291,-1.05032 0.71703,-1.27116 0.4375,-1.71875 -0.4868,-0.7795 -2.09665,-1.0625 -6.125,-1.0625 l -3.625,0 z m 107.96875,7.0625 0.625,1.09375 c 0.33896,0.59031 1.02496,1.7373 1.53125,2.5625 1.22084,1.98989 1.20638,3.4068 -0.0312,3.5 -0.35739,0.0269 -0.56005,0.23792 -0.65625,0.71875 -0.11578,0.5789 -0.27017,0.71875 -0.875,0.71875 l -0.75,0 0.28125,1.0625 c 0.24159,0.9518 0.22468,1.09033 -0.28125,1.5 -0.3071,0.24864 -0.72882,0.3926 -0.9375,0.3125 -0.31936,-0.12255 -0.36057,0.0246 -0.21875,1.09375 0.15118,1.13963 0.12216,1.32768 -0.375,1.59375 -0.30475,0.16275 -0.74001,0.23205 -0.9375,0.15625 -0.43595,-0.1673 -0.45246,0.11287 -0.0625,0.96875 0.41964,0.92099 -0.12643,1.90625 -1.0625,1.90625 -0.68154,0 -0.67034,-0.009 -0.40625,1.03125 0.24159,0.9518 0.19343,1.09032 -0.3125,1.5 -0.3071,0.24871 -0.70469,0.3898 -0.90625,0.3125 -0.31191,-0.1197 -0.378,0.53679 -0.375,4.375 0.002,2.48026 0.0756,4.76175 0.15625,5.0625 0.0807,0.30075 0.41589,0.6036 0.75,0.6875 0.46538,0.11681 0.59375,0.35012 0.59375,0.90625 l 0,0.71875 1.0625,-0.28125 c 0.96157,-0.24407 1.09566,-0.22543 1.53125,0.3125 0.26173,0.3232 0.41815,0.77496 0.34375,0.96875 -0.109,0.28404 0.0776,0.29457 1,0.15625 0.86808,-0.13018 1.26066,-0.0514 1.59375,0.25 0.30042,0.27188 1.05994,0.40915 2.4375,0.46875 1.1073,0.0479 4.06127,0.0971 6.5625,0.125 4.41443,0.0493 4.59878,0.0503 5.75,-0.5625 0.65229,-0.34724 1.33355,-0.625 1.53125,-0.625 0.57729,0 1.01386,-0.71899 1.6875,-2.75 0.7834,-2.36192 1.486,-2.97727 2.875,-2.59375 0.90809,0.25073 0.90625,0.23355 0.90625,-0.5 0,-0.62416 0.11405,-0.77906 0.75,-0.90625 l 0.78125,-0.15625 0,-3.5 c 0,-3.32199 -0.0267,-3.5 -0.5,-3.5 -0.27459,0 -0.68569,-0.25715 -0.90625,-0.59375 -0.33619,-0.51309 -0.35045,-0.84293 -0.125,-2.0625 0.34785,-1.88171 0.34098,-1.84205 -0.25,-1.6875 -0.62108,0.16241 -1.25,-0.32957 -1.25,-0.96875 0,-0.29549 -0.17326,-0.5 -0.46875,-0.5 -0.77994,0 -1.12851,-0.61941 -0.9375,-1.75 0.15489,-0.91678 0.12544,-1.03125 -0.34375,-1.03125 -0.82398,0 -1.31798,-0.92983 -1.0625,-2.0625 0.19293,-0.85538 0.18732,-0.94138 -0.21875,-0.8125 -0.74116,0.23524 -1.28125,-0.55086 -1.28125,-1.875 0,-1.11992 -0.0338,-1.1965 -0.65625,-1.1875 -0.94616,0.0142 -1.60301,-0.99181 -1.78125,-2.71875 l -0.15625,-1.4375 -7.3125,0 -7.3125,0 z"
         style="fill:#1a1a1a;stroke:none"
         inkscape:connector-curvature="0" />
    </g>
  </g>
</svg>
