<?xml version="1.0" encoding="UTF-8" standalone="no"?>
<!-- Created with Inkscape (http://www.inkscape.org/) -->

<svg
   xmlns:dc="http://purl.org/dc/elements/1.1/"
   xmlns:cc="http://creativecommons.org/ns#"
   xmlns:rdf="http://www.w3.org/1999/02/22-rdf-syntax-ns#"
   xmlns:svg="http://www.w3.org/2000/svg"
   xmlns="http://www.w3.org/2000/svg"
   xmlns:sodipodi="http://sodipodi.sourceforge.net/DTD/sodipodi-0.dtd"
   xmlns:inkscape="http://www.inkscape.org/namespaces/inkscape"
   sodipodi:docname="cat_a.svg"
   inkscape:version="0.48.4 r9939"
   version="1.1"
   id="svg2"
   height="35.905277"
   width="32.71875">
  <sodipodi:namedview
     id="base"
     pagecolor="#ffffff"
     bordercolor="#666666"
     borderopacity="1.0"
     inkscape:pageopacity="0.0"
     inkscape:pageshadow="2"
     inkscape:zoom="11.313709"
     inkscape:cx="27.005206"
     inkscape:cy="11.767502"
     inkscape:document-units="px"
     inkscape:current-layer="layer1"
     showgrid="false"
     inkscape:window-width="1920"
     inkscape:window-height="1030"
     inkscape:window-x="0"
     inkscape:window-y="0"
     inkscape:window-maximized="1"
     fit-margin-top="0"
     fit-margin-left="0"
     fit-margin-right="0"
     fit-margin-bottom="0" />
  <defs
     id="defs4" />
  <metadata
     id="metadata7">
    <rdf:RDF>
      <cc:Work
         rdf:about="">
        <dc:format>image/svg+xml</dc:format>
        <dc:type
           rdf:resource="http://purl.org/dc/dcmitype/StillImage" />
        <dc:title></dc:title>
      </cc:Work>
    </rdf:RDF>
  </metadata>
  <g
     inkscape:label="Layer 1"
     inkscape:groupmode="layer"
     id="layer1"
     transform="translate(17.691886,23.634138)">
    <g
       id="cat_a"
       inkscape:label="#g3807"
       style="stroke:#ff5555">
      <path
         transform="translate(-22.973136,-23.602888)"
         inkscape:connector-curvature="0"
         id="path3035"
         d="M 9.6950618,14.092276 8.6884707,1.5893549 15.787587,10.648675"
         style="fill:#ffd5d5;stroke:#ff5555;stroke-width:1;stroke-linecap:butt;stroke-linejoin:miter;stroke-miterlimit:4;stroke-opacity:1;stroke-dasharray:none" />
      <path
         style="fill:#ffd5d5;stroke:#ff5555;stroke-width:1;stroke-linecap:butt;stroke-linejoin:miter;stroke-miterlimit:4;stroke-opacity:1;stroke-dasharray:none"
         d="m 10.98607,-9.510612 1.006591,-12.502921 -7.0991162,9.05932"
         id="path3037"
         inkscape:connector-curvature="0" />
      <path
         transform="translate(-22.973136,-32.291359)"
         d="m 37.508763,31.310282 c 0,7.051469 -7.103922,12.767813 -15.867055,12.767813 -8.763132,0 -15.8670546,-5.716344 -15.8670546,-12.767813 0,-7.051469 7.1039226,-12.767814 15.8670546,-12.767814 8.763133,0 15.867055,5.716345 15.867055,12.767814 z"
         sodipodi:ry="12.767814"
         sodipodi:rx="15.867055"
         sodipodi:cy="31.310282"
         sodipodi:cx="21.641708"
         id="path2999"
         style="fill:#ffd5d5;stroke:#ff5555;stroke-width:1;stroke-linecap:round;stroke-linejoin:round;stroke-miterlimit:4;stroke-opacity:1;stroke-dasharray:none"
         sodipodi:type="arc" />
      <path
         transform="translate(-24.138663,-23.655866)"
         d="m 22.197983,17.562366 c 0,1.184998 -2.205892,2.145629 -4.926998,2.145629 -2.721107,0 -4.926999,-0.960631 -4.926999,-2.145629 0,-1.184997 2.205892,-2.145628 4.926999,-2.145628 2.721106,0 4.926998,0.960631 4.926998,2.145628 z"
         sodipodi:ry="2.1456285"
         sodipodi:rx="4.9269986"
         sodipodi:cy="17.562366"
         sodipodi:cx="17.270985"
         id="path3001"
         style="fill:none;stroke:#ff5555;stroke-width:1;stroke-linecap:round;stroke-linejoin:round;stroke-miterlimit:4;stroke-opacity:1;stroke-dasharray:none"
         sodipodi:type="arc" />
      <path
         sodipodi:type="arc"
         style="fill:none;stroke:#ff5555;stroke-width:1;stroke-linecap:round;stroke-linejoin:round;stroke-miterlimit:4;stroke-opacity:1;stroke-dasharray:none"
         id="path3003-8"
         sodipodi:cx="17.270985"
         sodipodi:cy="17.562366"
         sodipodi:rx="4.9269986"
         sodipodi:ry="2.1456285"
         d="m 22.197983,17.562366 c 0,1.184998 -2.205892,2.145629 -4.926998,2.145629 -2.721107,0 -4.926999,-0.960631 -4.926999,-2.145629 0,-1.184997 2.205892,-2.145628 4.926999,-2.145628 2.721106,0 4.926998,0.960631 4.926998,2.145628 z"
         transform="translate(-12.37744,-23.576399)" />
      <path
         sodipodi:type="arc"
         style="fill:none;stroke:#ff5555;stroke-width:2.34300732999999983;stroke-linecap:round;stroke-linejoin:round;stroke-miterlimit:4;stroke-opacity:1;stroke-dasharray:none"
         id="path3023"
         sodipodi:cx="17.270985"
         sodipodi:cy="17.562366"
         sodipodi:rx="4.9269986"
         sodipodi:ry="2.1456285"
         d="m 22.197983,17.562366 c 0,1.184998 -2.205892,2.145629 -4.926998,2.145629 -2.721107,0 -4.926999,-0.960631 -4.926999,-2.145629 0,-1.184997 2.205892,-2.145628 4.926999,-2.145628 2.721106,0 4.926998,0.960631 4.926998,2.145628 z"
         transform="matrix(0.18234753,0,0,0.99897091,-9.911043,-23.584813)" />
      <path
         transform="matrix(0.18234753,0,0,0.99897091,1.7442226,-23.478856)"
         d="m 22.197983,17.562366 c 0,1.184998 -2.205892,2.145629 -4.926998,2.145629 -2.721107,0 -4.926999,-0.960631 -4.926999,-2.145629 0,-1.184997 2.205892,-2.145628 4.926999,-2.145628 2.721106,0 4.926998,0.960631 4.926998,2.145628 z"
         sodipodi:ry="2.1456285"
         sodipodi:rx="4.9269986"
         sodipodi:cy="17.562366"
         sodipodi:cx="17.270985"
         id="path3025"
         style="fill:none;stroke:#ff5555;stroke-width:2.34300732999999983;stroke-linecap:round;stroke-linejoin:round;stroke-miterlimit:4;stroke-opacity:1;stroke-dasharray:none"
         sodipodi:type="arc" />
      <path
         sodipodi:nodetypes="ccssc"
         transform="translate(-22.973136,-23.602888)"
         inkscape:connector-curvature="0"
         id="path3027"
         d="m 17.747791,24.05223 c 8.158686,0 7.364009,0 7.364009,0 0,0 0.158935,2.066161 -0.688721,3.072752 -0.847656,1.006592 -4.609128,1.006592 -5.721676,0.05298 -1.313308,-1.125693 -0.953612,-3.125731 -0.953612,-3.125732 z"
         style="fill:none;stroke:#ff5555;stroke-width:1;stroke-linecap:butt;stroke-linejoin:miter;stroke-miterlimit:4;stroke-opacity:1;stroke-dasharray:none" />
      <path
         style="fill:none;stroke:#ff5555;stroke-width:1;stroke-linecap:butt;stroke-linejoin:miter;stroke-miterlimit:4;stroke-opacity:1;stroke-dasharray:none"
         d="m 4.1025462,6.8030796 c 0,0 -2.4681788,1.3656576 -5.5439095,1.2784885 -3.0757308,-0.087169 -5.429994,-1.2784872 -5.429994,-1.2784872"
         id="path3031"
         inkscape:connector-curvature="0"
         sodipodi:nodetypes="czc" />
      <path
         transform="translate(-22.973136,-23.602888)"
         inkscape:connector-curvature="0"
         id="path3033"
         d="m 21.721177,31.628153 0,-3.814451"
         style="fill:none;stroke:#ff5555;stroke-width:1;stroke-linecap:butt;stroke-linejoin:miter;stroke-miterlimit:4;stroke-opacity:1;stroke-dasharray:none" />
    </g>
  </g>
</svg>
